<svg xmlns="http://www.w3.org/2000/svg" viewBox="0 0 1400 800" preserveAspectRatio="xMidYMid meet">
<rect x="0" y="0" width="1400" height="800" fill="#ffffff"/>
<defs>
  <marker id="arrow" viewBox="0 0 10 10" refX="9" refY="5" markerWidth="7" markerHeight="7" orient="auto-start-reverse">
    <path d="M0,0 L10,5 L0,10 Z" fill="context-stroke"/>
  </marker>
  <marker id="arrow-gold" viewBox="0 0 10 10" refX="9" refY="5" markerWidth="7" markerHeight="7" orient="auto-start-reverse">
    <path d="M0,0 L10,5 L0,10 Z" fill="#fdb913"/>
  </marker>
</defs>
<rect x="80.0" y="345.0" width="200" height="110" fill="#fdb913" stroke="#000000" stroke-width="2.5" rx="14"/>
<text x="180" y="410.0" font-family="'Roboto Mono', 'Menlo', 'Consolas', monospace" font-size="30" fill="#000000" text-anchor="middle" font-weight="normal" font-style="normal">(a, b)</text>
<polygon points="480,320.0 600.0,400.0 480,480.0 360.0,400.0" fill="#fce3a4" stroke="#000000" stroke-width="2.5"/>
<text x="480" y="410.0" font-family="'Roboto Mono', 'Menlo', 'Consolas', monospace" font-size="30" fill="#000000" text-anchor="middle" font-weight="normal" font-style="normal">b = 0 ?</text>
<rect x="730.0" y="165.0" width="220" height="110" fill="#fdb913" stroke="#000000" stroke-width="2.5" rx="14"/>
<text x="840" y="230.0" font-family="'Roboto Mono', 'Menlo', 'Consolas', monospace" font-size="30" fill="#000000" text-anchor="middle" font-weight="normal" font-style="normal">return a</text>
<rect x="740.0" y="345.0" width="320" height="110" fill="#fdb913" stroke="#000000" stroke-width="2.5" rx="14"/>
<text x="900" y="410.0" font-family="'Roboto Mono', 'Menlo', 'Consolas', monospace" font-size="30" fill="#000000" text-anchor="middle" font-weight="normal" font-style="normal">(b, a mod b)</text>
<line x1="280" y1="400.0" x2="360" y2="400.0" stroke="#000000" stroke-width="2.5" marker-end="url(#arrow)"/>
<line x1="480" y1="320.0" x2="840" y2="270.0" stroke="#000000" stroke-width="2.5" marker-end="url(#arrow)"/>
<text x="640" y="290.0" font-family="Roboto, 'Helvetica Neue', Arial, sans-serif" font-size="26" fill="#000000" text-anchor="middle" font-weight="normal" font-style="normal">yes</text>
<line x1="600" y1="400.0" x2="740" y2="400.0" stroke="#000000" stroke-width="2.5" marker-end="url(#arrow)"/>
<text x="670" y="388.0" font-family="Roboto, 'Helvetica Neue', Arial, sans-serif" font-size="26" fill="#000000" text-anchor="middle" font-weight="normal" font-style="normal">no</text>
<line x1="900" y1="455.0" x2="900" y2="630.0" stroke="#000000" stroke-width="2.5"/>
<line x1="900" y1="630.0" x2="180" y2="630.0" stroke="#000000" stroke-width="2.5"/>
<line x1="180" y1="630.0" x2="180" y2="455.0" stroke="#000000" stroke-width="2.5"/>
<polygon points="180,455.0 170,475.0 190,475.0" fill="#000000" stroke="#000000" stroke-width="1"/>
<text x="540" y="616.0" font-family="Roboto, 'Helvetica Neue', Arial, sans-serif" font-size="26" fill="#000000" text-anchor="middle" font-weight="normal" font-style="italic">recurse</text>
</svg>
