<svg xmlns="http://www.w3.org/2000/svg" viewBox="0 0 1600 1200" preserveAspectRatio="xMidYMid meet">
<rect x="0" y="0" width="1600" height="1200" fill="#ffffff"/>
<defs>
  <marker id="arrow" viewBox="0 0 10 10" refX="9" refY="5" markerWidth="7" markerHeight="7" orient="auto-start-reverse">
    <path d="M0,0 L10,5 L0,10 Z" fill="context-stroke"/>
  </marker>
  <marker id="arrow-gold" viewBox="0 0 10 10" refX="9" refY="5" markerWidth="7" markerHeight="7" orient="auto-start-reverse">
    <path d="M0,0 L10,5 L0,10 Z" fill="#fdb913"/>
  </marker>
</defs>
<rect x="460" y="180" width="680" height="740" fill="#fce3a4" stroke="#000000" stroke-width="4" rx="0"/>
<rect x="484" y="204" width="632" height="692" fill="none" stroke="#000000" stroke-width="1.5" rx="0"/>
<path d="M1080,270 q-40,16 -80,0 q-40,-16 -80,0 q-40,16 -80,0 q-40,-16 -80,0 q-40,16 -80,0 q-40,-16 -80,0" stroke="#000000" fill="none" stroke-width="2.2" stroke-linecap="round" stroke-linejoin="round"/>
<path d="M1080,326 q-40,16 -80,0 q-40,-16 -80,0 q-40,16 -80,0 q-40,-16 -80,0 q-40,16 -80,0 q-40,-16 -80,0" stroke="#000000" fill="none" stroke-width="2.2" stroke-linecap="round" stroke-linejoin="round"/>
<rect x="1050" y="308" width="4" height="4" fill="#000000" stroke="#000000" stroke-width="0.5" rx="0"/>
<rect x="960" y="308" width="4" height="4" fill="#000000" stroke="#000000" stroke-width="0.5" rx="0"/>
<rect x="870" y="308" width="4" height="4" fill="#000000" stroke="#000000" stroke-width="0.5" rx="0"/>
<rect x="780" y="308" width="4" height="4" fill="#000000" stroke="#000000" stroke-width="0.5" rx="0"/>
<rect x="690" y="308" width="4" height="4" fill="#000000" stroke="#000000" stroke-width="0.5" rx="0"/>
<rect x="600" y="308" width="4" height="4" fill="#000000" stroke="#000000" stroke-width="0.5" rx="0"/>
<path d="M1080,382 q-40,16 -80,0 q-40,-16 -80,0 q-40,16 -80,0 q-40,-16 -80,0 q-40,16 -80,0 q-40,-16 -80,0" stroke="#000000" fill="none" stroke-width="2.2" stroke-linecap="round" stroke-linejoin="round"/>
<path d="M1080,438 q-40,16 -80,0 q-40,-16 -80,0 q-40,16 -80,0 q-40,-16 -80,0 q-40,16 -80,0 q-40,-16 -80,0" stroke="#000000" fill="none" stroke-width="2.2" stroke-linecap="round" stroke-linejoin="round"/>
<path d="M1080,494 q-40,16 -80,0 q-40,-16 -80,0 q-40,16 -80,0 q-40,-16 -80,0 q-40,16 -80,0 q-40,-16 -80,0" stroke="#000000" fill="none" stroke-width="2.2" stroke-linecap="round" stroke-linejoin="round"/>
<rect x="1050" y="476" width="4" height="4" fill="#000000" stroke="#000000" stroke-width="0.5" rx="0"/>
<rect x="960" y="476" width="4" height="4" fill="#000000" stroke="#000000" stroke-width="0.5" rx="0"/>
<rect x="870" y="476" width="4" height="4" fill="#000000" stroke="#000000" stroke-width="0.5" rx="0"/>
<rect x="780" y="476" width="4" height="4" fill="#000000" stroke="#000000" stroke-width="0.5" rx="0"/>
<rect x="690" y="476" width="4" height="4" fill="#000000" stroke="#000000" stroke-width="0.5" rx="0"/>
<rect x="600" y="476" width="4" height="4" fill="#000000" stroke="#000000" stroke-width="0.5" rx="0"/>
<path d="M1080,550 q-40,16 -80,0 q-40,-16 -80,0 q-40,16 -80,0 q-40,-16 -80,0 q-40,16 -80,0 q-40,-16 -80,0" stroke="#000000" fill="none" stroke-width="2.2" stroke-linecap="round" stroke-linejoin="round"/>
<path d="M1080,606 q-40,16 -80,0 q-40,-16 -80,0 q-40,16 -80,0 q-40,-16 -80,0 q-40,16 -80,0 q-40,-16 -80,0" stroke="#000000" fill="none" stroke-width="2.2" stroke-linecap="round" stroke-linejoin="round"/>
<path d="M1080,662 q-40,16 -80,0 q-40,-16 -80,0 q-40,16 -80,0 q-40,-16 -80,0 q-40,16 -80,0 q-40,-16 -80,0" stroke="#000000" fill="none" stroke-width="2.2" stroke-linecap="round" stroke-linejoin="round"/>
<rect x="1050" y="644" width="4" height="4" fill="#000000" stroke="#000000" stroke-width="0.5" rx="0"/>
<rect x="960" y="644" width="4" height="4" fill="#000000" stroke="#000000" stroke-width="0.5" rx="0"/>
<rect x="870" y="644" width="4" height="4" fill="#000000" stroke="#000000" stroke-width="0.5" rx="0"/>
<rect x="780" y="644" width="4" height="4" fill="#000000" stroke="#000000" stroke-width="0.5" rx="0"/>
<rect x="690" y="644" width="4" height="4" fill="#000000" stroke="#000000" stroke-width="0.5" rx="0"/>
<rect x="600" y="644" width="4" height="4" fill="#000000" stroke="#000000" stroke-width="0.5" rx="0"/>
<path d="M1080,718 q-40,16 -80,0 q-40,-16 -80,0 q-40,16 -80,0 q-40,-16 -80,0 q-40,16 -80,0 q-40,-16 -80,0" stroke="#000000" fill="none" stroke-width="2.2" stroke-linecap="round" stroke-linejoin="round"/>
<path d="M1080,774 q-40,16 -80,0 q-40,-16 -80,0 q-40,16 -80,0 q-40,-16 -80,0 q-40,16 -80,0 q-40,-16 -80,0" stroke="#000000" fill="none" stroke-width="2.2" stroke-linecap="round" stroke-linejoin="round"/>
<path d="M1080,830 q-40,16 -80,0 q-40,-16 -80,0 q-40,16 -80,0 q-40,-16 -80,0 q-40,16 -80,0 q-40,-16 -80,0" stroke="#000000" fill="none" stroke-width="2.2" stroke-linecap="round" stroke-linejoin="round"/>
<rect x="1050" y="812" width="4" height="4" fill="#000000" stroke="#000000" stroke-width="0.5" rx="0"/>
<rect x="960" y="812" width="4" height="4" fill="#000000" stroke="#000000" stroke-width="0.5" rx="0"/>
<rect x="870" y="812" width="4" height="4" fill="#000000" stroke="#000000" stroke-width="0.5" rx="0"/>
<rect x="780" y="812" width="4" height="4" fill="#000000" stroke="#000000" stroke-width="0.5" rx="0"/>
<rect x="690" y="812" width="4" height="4" fill="#000000" stroke="#000000" stroke-width="0.5" rx="0"/>
<rect x="600" y="812" width="4" height="4" fill="#000000" stroke="#000000" stroke-width="0.5" rx="0"/>
<rect x="490" y="210" width="24" height="680" fill="#fdb913" stroke="#000000" stroke-width="1.5" rx="0"/>
<rect x="496" y="240" width="12" height="12" fill="#000000" stroke="#000000" stroke-width="0" rx="0"/>
<rect x="496" y="330" width="12" height="12" fill="#000000" stroke="#000000" stroke-width="0" rx="0"/>
<rect x="496" y="420" width="12" height="12" fill="#000000" stroke="#000000" stroke-width="0" rx="0"/>
<rect x="496" y="510" width="12" height="12" fill="#000000" stroke="#000000" stroke-width="0" rx="0"/>
<rect x="496" y="600" width="12" height="12" fill="#000000" stroke="#000000" stroke-width="0" rx="0"/>
<rect x="496" y="690" width="12" height="12" fill="#000000" stroke="#000000" stroke-width="0" rx="0"/>
<rect x="496" y="780" width="12" height="12" fill="#000000" stroke="#000000" stroke-width="0" rx="0"/>
<rect x="496" y="870" width="12" height="12" fill="#000000" stroke="#000000" stroke-width="0" rx="0"/>
<text x="800.0" y="970" font-family="Roboto, 'Helvetica Neue', Arial, sans-serif" font-size="30" fill="#000000" text-anchor="middle" font-weight="normal" font-style="italic">[image placeholder — al-Khwarizmi, The Algebra]</text>
<text x="800.0" y="1014" font-family="Roboto, 'Helvetica Neue', Arial, sans-serif" font-size="24" fill="#000000" text-anchor="middle" font-weight="normal" font-style="normal">credit: Wikipedia (File:The_Algebra_of_Mohammed_ben_Musa_(Arabic).png)</text>
</svg>
