<svg xmlns="http://www.w3.org/2000/svg" viewBox="0 0 1600 1200" preserveAspectRatio="xMidYMid meet">
<rect x="0" y="0" width="1600" height="1200" fill="#ffffff"/>
<defs>
  <marker id="arrow" viewBox="0 0 10 10" refX="9" refY="5" markerWidth="7" markerHeight="7" orient="auto-start-reverse">
    <path d="M0,0 L10,5 L0,10 Z" fill="context-stroke"/>
  </marker>
  <marker id="arrow-gold" viewBox="0 0 10 10" refX="9" refY="5" markerWidth="7" markerHeight="7" orient="auto-start-reverse">
    <path d="M0,0 L10,5 L0,10 Z" fill="#fdb913"/>
  </marker>
</defs>
<text x="800.0" y="110" font-family="Roboto, 'Helvetica Neue', Arial, sans-serif" font-size="44" fill="#000000" text-anchor="middle" font-weight="bold" font-style="normal">gcd(48, 18) by subtraction</text>
<text x="170" y="232" font-family="'Roboto Mono', 'Menlo', 'Consolas', monospace" font-size="30" fill="#000000" text-anchor="end" font-weight="normal" font-style="normal">48, 18</text>
<rect x="220" y="200" width="22" height="40" fill="#fdb913" stroke="#000000" stroke-width="1.5" rx="0"/>
<rect x="242" y="200" width="22" height="40" fill="#fdb913" stroke="#000000" stroke-width="1.5" rx="0"/>
<rect x="264" y="200" width="22" height="40" fill="#fdb913" stroke="#000000" stroke-width="1.5" rx="0"/>
<rect x="286" y="200" width="22" height="40" fill="#fdb913" stroke="#000000" stroke-width="1.5" rx="0"/>
<rect x="308" y="200" width="22" height="40" fill="#fdb913" stroke="#000000" stroke-width="1.5" rx="0"/>
<rect x="330" y="200" width="22" height="40" fill="#fdb913" stroke="#000000" stroke-width="1.5" rx="0"/>
<rect x="352" y="200" width="22" height="40" fill="#fdb913" stroke="#000000" stroke-width="1.5" rx="0"/>
<rect x="374" y="200" width="22" height="40" fill="#fdb913" stroke="#000000" stroke-width="1.5" rx="0"/>
<rect x="396" y="200" width="22" height="40" fill="#fdb913" stroke="#000000" stroke-width="1.5" rx="0"/>
<rect x="418" y="200" width="22" height="40" fill="#fdb913" stroke="#000000" stroke-width="1.5" rx="0"/>
<rect x="440" y="200" width="22" height="40" fill="#fdb913" stroke="#000000" stroke-width="1.5" rx="0"/>
<rect x="462" y="200" width="22" height="40" fill="#fdb913" stroke="#000000" stroke-width="1.5" rx="0"/>
<rect x="484" y="200" width="22" height="40" fill="#fdb913" stroke="#000000" stroke-width="1.5" rx="0"/>
<rect x="506" y="200" width="22" height="40" fill="#fdb913" stroke="#000000" stroke-width="1.5" rx="0"/>
<rect x="528" y="200" width="22" height="40" fill="#fdb913" stroke="#000000" stroke-width="1.5" rx="0"/>
<rect x="550" y="200" width="22" height="40" fill="#fdb913" stroke="#000000" stroke-width="1.5" rx="0"/>
<rect x="572" y="200" width="22" height="40" fill="#fdb913" stroke="#000000" stroke-width="1.5" rx="0"/>
<rect x="594" y="200" width="22" height="40" fill="#fdb913" stroke="#000000" stroke-width="1.5" rx="0"/>
<rect x="616" y="200" width="22" height="40" fill="#fdb913" stroke="#000000" stroke-width="1.5" rx="0"/>
<rect x="638" y="200" width="22" height="40" fill="#fdb913" stroke="#000000" stroke-width="1.5" rx="0"/>
<rect x="660" y="200" width="22" height="40" fill="#fdb913" stroke="#000000" stroke-width="1.5" rx="0"/>
<rect x="682" y="200" width="22" height="40" fill="#fdb913" stroke="#000000" stroke-width="1.5" rx="0"/>
<rect x="704" y="200" width="22" height="40" fill="#fdb913" stroke="#000000" stroke-width="1.5" rx="0"/>
<rect x="726" y="200" width="22" height="40" fill="#fdb913" stroke="#000000" stroke-width="1.5" rx="0"/>
<rect x="748" y="200" width="22" height="40" fill="#fdb913" stroke="#000000" stroke-width="1.5" rx="0"/>
<rect x="770" y="200" width="22" height="40" fill="#fdb913" stroke="#000000" stroke-width="1.5" rx="0"/>
<rect x="792" y="200" width="22" height="40" fill="#fdb913" stroke="#000000" stroke-width="1.5" rx="0"/>
<rect x="814" y="200" width="22" height="40" fill="#fdb913" stroke="#000000" stroke-width="1.5" rx="0"/>
<rect x="836" y="200" width="22" height="40" fill="#fdb913" stroke="#000000" stroke-width="1.5" rx="0"/>
<rect x="858" y="200" width="22" height="40" fill="#fdb913" stroke="#000000" stroke-width="1.5" rx="0"/>
<rect x="880" y="200" width="22" height="40" fill="#fdb913" stroke="#000000" stroke-width="1.5" rx="0"/>
<rect x="902" y="200" width="22" height="40" fill="#fdb913" stroke="#000000" stroke-width="1.5" rx="0"/>
<rect x="924" y="200" width="22" height="40" fill="#fdb913" stroke="#000000" stroke-width="1.5" rx="0"/>
<rect x="946" y="200" width="22" height="40" fill="#fdb913" stroke="#000000" stroke-width="1.5" rx="0"/>
<rect x="968" y="200" width="22" height="40" fill="#fdb913" stroke="#000000" stroke-width="1.5" rx="0"/>
<rect x="990" y="200" width="22" height="40" fill="#fdb913" stroke="#000000" stroke-width="1.5" rx="0"/>
<rect x="1012" y="200" width="22" height="40" fill="#fdb913" stroke="#000000" stroke-width="1.5" rx="0"/>
<rect x="1034" y="200" width="22" height="40" fill="#fdb913" stroke="#000000" stroke-width="1.5" rx="0"/>
<rect x="1056" y="200" width="22" height="40" fill="#fdb913" stroke="#000000" stroke-width="1.5" rx="0"/>
<rect x="1078" y="200" width="22" height="40" fill="#fdb913" stroke="#000000" stroke-width="1.5" rx="0"/>
<rect x="1100" y="200" width="22" height="40" fill="#fdb913" stroke="#000000" stroke-width="1.5" rx="0"/>
<rect x="1122" y="200" width="22" height="40" fill="#fdb913" stroke="#000000" stroke-width="1.5" rx="0"/>
<rect x="1144" y="200" width="22" height="40" fill="#fdb913" stroke="#000000" stroke-width="1.5" rx="0"/>
<rect x="1166" y="200" width="22" height="40" fill="#fdb913" stroke="#000000" stroke-width="1.5" rx="0"/>
<rect x="1188" y="200" width="22" height="40" fill="#fdb913" stroke="#000000" stroke-width="1.5" rx="0"/>
<rect x="1210" y="200" width="22" height="40" fill="#fdb913" stroke="#000000" stroke-width="1.5" rx="0"/>
<rect x="1232" y="200" width="22" height="40" fill="#fdb913" stroke="#000000" stroke-width="1.5" rx="0"/>
<rect x="1254" y="200" width="22" height="40" fill="#fdb913" stroke="#000000" stroke-width="1.5" rx="0"/>
<rect x="220" y="250" width="22" height="40" fill="#fce3a4" stroke="#000000" stroke-width="1.5" rx="0"/>
<rect x="242" y="250" width="22" height="40" fill="#fce3a4" stroke="#000000" stroke-width="1.5" rx="0"/>
<rect x="264" y="250" width="22" height="40" fill="#fce3a4" stroke="#000000" stroke-width="1.5" rx="0"/>
<rect x="286" y="250" width="22" height="40" fill="#fce3a4" stroke="#000000" stroke-width="1.5" rx="0"/>
<rect x="308" y="250" width="22" height="40" fill="#fce3a4" stroke="#000000" stroke-width="1.5" rx="0"/>
<rect x="330" y="250" width="22" height="40" fill="#fce3a4" stroke="#000000" stroke-width="1.5" rx="0"/>
<rect x="352" y="250" width="22" height="40" fill="#fce3a4" stroke="#000000" stroke-width="1.5" rx="0"/>
<rect x="374" y="250" width="22" height="40" fill="#fce3a4" stroke="#000000" stroke-width="1.5" rx="0"/>
<rect x="396" y="250" width="22" height="40" fill="#fce3a4" stroke="#000000" stroke-width="1.5" rx="0"/>
<rect x="418" y="250" width="22" height="40" fill="#fce3a4" stroke="#000000" stroke-width="1.5" rx="0"/>
<rect x="440" y="250" width="22" height="40" fill="#fce3a4" stroke="#000000" stroke-width="1.5" rx="0"/>
<rect x="462" y="250" width="22" height="40" fill="#fce3a4" stroke="#000000" stroke-width="1.5" rx="0"/>
<rect x="484" y="250" width="22" height="40" fill="#fce3a4" stroke="#000000" stroke-width="1.5" rx="0"/>
<rect x="506" y="250" width="22" height="40" fill="#fce3a4" stroke="#000000" stroke-width="1.5" rx="0"/>
<rect x="528" y="250" width="22" height="40" fill="#fce3a4" stroke="#000000" stroke-width="1.5" rx="0"/>
<rect x="550" y="250" width="22" height="40" fill="#fce3a4" stroke="#000000" stroke-width="1.5" rx="0"/>
<rect x="572" y="250" width="22" height="40" fill="#fce3a4" stroke="#000000" stroke-width="1.5" rx="0"/>
<rect x="594" y="250" width="22" height="40" fill="#fce3a4" stroke="#000000" stroke-width="1.5" rx="0"/>
<text x="1306" y="250" font-family="Roboto, 'Helvetica Neue', Arial, sans-serif" font-size="22" fill="#000000" text-anchor="start" font-weight="normal" font-style="italic">→ subtract smaller</text>
<text x="170" y="362" font-family="'Roboto Mono', 'Menlo', 'Consolas', monospace" font-size="30" fill="#000000" text-anchor="end" font-weight="normal" font-style="normal">30, 18</text>
<rect x="220" y="330" width="22" height="40" fill="#fdb913" stroke="#000000" stroke-width="1.5" rx="0"/>
<rect x="242" y="330" width="22" height="40" fill="#fdb913" stroke="#000000" stroke-width="1.5" rx="0"/>
<rect x="264" y="330" width="22" height="40" fill="#fdb913" stroke="#000000" stroke-width="1.5" rx="0"/>
<rect x="286" y="330" width="22" height="40" fill="#fdb913" stroke="#000000" stroke-width="1.5" rx="0"/>
<rect x="308" y="330" width="22" height="40" fill="#fdb913" stroke="#000000" stroke-width="1.5" rx="0"/>
<rect x="330" y="330" width="22" height="40" fill="#fdb913" stroke="#000000" stroke-width="1.5" rx="0"/>
<rect x="352" y="330" width="22" height="40" fill="#fdb913" stroke="#000000" stroke-width="1.5" rx="0"/>
<rect x="374" y="330" width="22" height="40" fill="#fdb913" stroke="#000000" stroke-width="1.5" rx="0"/>
<rect x="396" y="330" width="22" height="40" fill="#fdb913" stroke="#000000" stroke-width="1.5" rx="0"/>
<rect x="418" y="330" width="22" height="40" fill="#fdb913" stroke="#000000" stroke-width="1.5" rx="0"/>
<rect x="440" y="330" width="22" height="40" fill="#fdb913" stroke="#000000" stroke-width="1.5" rx="0"/>
<rect x="462" y="330" width="22" height="40" fill="#fdb913" stroke="#000000" stroke-width="1.5" rx="0"/>
<rect x="484" y="330" width="22" height="40" fill="#fdb913" stroke="#000000" stroke-width="1.5" rx="0"/>
<rect x="506" y="330" width="22" height="40" fill="#fdb913" stroke="#000000" stroke-width="1.5" rx="0"/>
<rect x="528" y="330" width="22" height="40" fill="#fdb913" stroke="#000000" stroke-width="1.5" rx="0"/>
<rect x="550" y="330" width="22" height="40" fill="#fdb913" stroke="#000000" stroke-width="1.5" rx="0"/>
<rect x="572" y="330" width="22" height="40" fill="#fdb913" stroke="#000000" stroke-width="1.5" rx="0"/>
<rect x="594" y="330" width="22" height="40" fill="#fdb913" stroke="#000000" stroke-width="1.5" rx="0"/>
<rect x="616" y="330" width="22" height="40" fill="#fdb913" stroke="#000000" stroke-width="1.5" rx="0"/>
<rect x="638" y="330" width="22" height="40" fill="#fdb913" stroke="#000000" stroke-width="1.5" rx="0"/>
<rect x="660" y="330" width="22" height="40" fill="#fdb913" stroke="#000000" stroke-width="1.5" rx="0"/>
<rect x="682" y="330" width="22" height="40" fill="#fdb913" stroke="#000000" stroke-width="1.5" rx="0"/>
<rect x="704" y="330" width="22" height="40" fill="#fdb913" stroke="#000000" stroke-width="1.5" rx="0"/>
<rect x="726" y="330" width="22" height="40" fill="#fdb913" stroke="#000000" stroke-width="1.5" rx="0"/>
<rect x="748" y="330" width="22" height="40" fill="#fdb913" stroke="#000000" stroke-width="1.5" rx="0"/>
<rect x="770" y="330" width="22" height="40" fill="#fdb913" stroke="#000000" stroke-width="1.5" rx="0"/>
<rect x="792" y="330" width="22" height="40" fill="#fdb913" stroke="#000000" stroke-width="1.5" rx="0"/>
<rect x="814" y="330" width="22" height="40" fill="#fdb913" stroke="#000000" stroke-width="1.5" rx="0"/>
<rect x="836" y="330" width="22" height="40" fill="#fdb913" stroke="#000000" stroke-width="1.5" rx="0"/>
<rect x="858" y="330" width="22" height="40" fill="#fdb913" stroke="#000000" stroke-width="1.5" rx="0"/>
<rect x="220" y="380" width="22" height="40" fill="#fce3a4" stroke="#000000" stroke-width="1.5" rx="0"/>
<rect x="242" y="380" width="22" height="40" fill="#fce3a4" stroke="#000000" stroke-width="1.5" rx="0"/>
<rect x="264" y="380" width="22" height="40" fill="#fce3a4" stroke="#000000" stroke-width="1.5" rx="0"/>
<rect x="286" y="380" width="22" height="40" fill="#fce3a4" stroke="#000000" stroke-width="1.5" rx="0"/>
<rect x="308" y="380" width="22" height="40" fill="#fce3a4" stroke="#000000" stroke-width="1.5" rx="0"/>
<rect x="330" y="380" width="22" height="40" fill="#fce3a4" stroke="#000000" stroke-width="1.5" rx="0"/>
<rect x="352" y="380" width="22" height="40" fill="#fce3a4" stroke="#000000" stroke-width="1.5" rx="0"/>
<rect x="374" y="380" width="22" height="40" fill="#fce3a4" stroke="#000000" stroke-width="1.5" rx="0"/>
<rect x="396" y="380" width="22" height="40" fill="#fce3a4" stroke="#000000" stroke-width="1.5" rx="0"/>
<rect x="418" y="380" width="22" height="40" fill="#fce3a4" stroke="#000000" stroke-width="1.5" rx="0"/>
<rect x="440" y="380" width="22" height="40" fill="#fce3a4" stroke="#000000" stroke-width="1.5" rx="0"/>
<rect x="462" y="380" width="22" height="40" fill="#fce3a4" stroke="#000000" stroke-width="1.5" rx="0"/>
<rect x="484" y="380" width="22" height="40" fill="#fce3a4" stroke="#000000" stroke-width="1.5" rx="0"/>
<rect x="506" y="380" width="22" height="40" fill="#fce3a4" stroke="#000000" stroke-width="1.5" rx="0"/>
<rect x="528" y="380" width="22" height="40" fill="#fce3a4" stroke="#000000" stroke-width="1.5" rx="0"/>
<rect x="550" y="380" width="22" height="40" fill="#fce3a4" stroke="#000000" stroke-width="1.5" rx="0"/>
<rect x="572" y="380" width="22" height="40" fill="#fce3a4" stroke="#000000" stroke-width="1.5" rx="0"/>
<rect x="594" y="380" width="22" height="40" fill="#fce3a4" stroke="#000000" stroke-width="1.5" rx="0"/>
<text x="1306" y="380" font-family="Roboto, 'Helvetica Neue', Arial, sans-serif" font-size="22" fill="#000000" text-anchor="start" font-weight="normal" font-style="italic">→ subtract smaller</text>
<text x="170" y="492" font-family="'Roboto Mono', 'Menlo', 'Consolas', monospace" font-size="30" fill="#000000" text-anchor="end" font-weight="normal" font-style="normal">12, 18</text>
<rect x="220" y="460" width="22" height="40" fill="#fdb913" stroke="#000000" stroke-width="1.5" rx="0"/>
<rect x="242" y="460" width="22" height="40" fill="#fdb913" stroke="#000000" stroke-width="1.5" rx="0"/>
<rect x="264" y="460" width="22" height="40" fill="#fdb913" stroke="#000000" stroke-width="1.5" rx="0"/>
<rect x="286" y="460" width="22" height="40" fill="#fdb913" stroke="#000000" stroke-width="1.5" rx="0"/>
<rect x="308" y="460" width="22" height="40" fill="#fdb913" stroke="#000000" stroke-width="1.5" rx="0"/>
<rect x="330" y="460" width="22" height="40" fill="#fdb913" stroke="#000000" stroke-width="1.5" rx="0"/>
<rect x="352" y="460" width="22" height="40" fill="#fdb913" stroke="#000000" stroke-width="1.5" rx="0"/>
<rect x="374" y="460" width="22" height="40" fill="#fdb913" stroke="#000000" stroke-width="1.5" rx="0"/>
<rect x="396" y="460" width="22" height="40" fill="#fdb913" stroke="#000000" stroke-width="1.5" rx="0"/>
<rect x="418" y="460" width="22" height="40" fill="#fdb913" stroke="#000000" stroke-width="1.5" rx="0"/>
<rect x="440" y="460" width="22" height="40" fill="#fdb913" stroke="#000000" stroke-width="1.5" rx="0"/>
<rect x="462" y="460" width="22" height="40" fill="#fdb913" stroke="#000000" stroke-width="1.5" rx="0"/>
<rect x="220" y="510" width="22" height="40" fill="#fce3a4" stroke="#000000" stroke-width="1.5" rx="0"/>
<rect x="242" y="510" width="22" height="40" fill="#fce3a4" stroke="#000000" stroke-width="1.5" rx="0"/>
<rect x="264" y="510" width="22" height="40" fill="#fce3a4" stroke="#000000" stroke-width="1.5" rx="0"/>
<rect x="286" y="510" width="22" height="40" fill="#fce3a4" stroke="#000000" stroke-width="1.5" rx="0"/>
<rect x="308" y="510" width="22" height="40" fill="#fce3a4" stroke="#000000" stroke-width="1.5" rx="0"/>
<rect x="330" y="510" width="22" height="40" fill="#fce3a4" stroke="#000000" stroke-width="1.5" rx="0"/>
<rect x="352" y="510" width="22" height="40" fill="#fce3a4" stroke="#000000" stroke-width="1.5" rx="0"/>
<rect x="374" y="510" width="22" height="40" fill="#fce3a4" stroke="#000000" stroke-width="1.5" rx="0"/>
<rect x="396" y="510" width="22" height="40" fill="#fce3a4" stroke="#000000" stroke-width="1.5" rx="0"/>
<rect x="418" y="510" width="22" height="40" fill="#fce3a4" stroke="#000000" stroke-width="1.5" rx="0"/>
<rect x="440" y="510" width="22" height="40" fill="#fce3a4" stroke="#000000" stroke-width="1.5" rx="0"/>
<rect x="462" y="510" width="22" height="40" fill="#fce3a4" stroke="#000000" stroke-width="1.5" rx="0"/>
<rect x="484" y="510" width="22" height="40" fill="#fce3a4" stroke="#000000" stroke-width="1.5" rx="0"/>
<rect x="506" y="510" width="22" height="40" fill="#fce3a4" stroke="#000000" stroke-width="1.5" rx="0"/>
<rect x="528" y="510" width="22" height="40" fill="#fce3a4" stroke="#000000" stroke-width="1.5" rx="0"/>
<rect x="550" y="510" width="22" height="40" fill="#fce3a4" stroke="#000000" stroke-width="1.5" rx="0"/>
<rect x="572" y="510" width="22" height="40" fill="#fce3a4" stroke="#000000" stroke-width="1.5" rx="0"/>
<rect x="594" y="510" width="22" height="40" fill="#fce3a4" stroke="#000000" stroke-width="1.5" rx="0"/>
<text x="1306" y="510" font-family="Roboto, 'Helvetica Neue', Arial, sans-serif" font-size="22" fill="#000000" text-anchor="start" font-weight="normal" font-style="italic">→ subtract smaller</text>
<text x="170" y="622" font-family="'Roboto Mono', 'Menlo', 'Consolas', monospace" font-size="30" fill="#000000" text-anchor="end" font-weight="normal" font-style="normal">12,  6</text>
<rect x="220" y="590" width="22" height="40" fill="#fdb913" stroke="#000000" stroke-width="1.5" rx="0"/>
<rect x="242" y="590" width="22" height="40" fill="#fdb913" stroke="#000000" stroke-width="1.5" rx="0"/>
<rect x="264" y="590" width="22" height="40" fill="#fdb913" stroke="#000000" stroke-width="1.5" rx="0"/>
<rect x="286" y="590" width="22" height="40" fill="#fdb913" stroke="#000000" stroke-width="1.5" rx="0"/>
<rect x="308" y="590" width="22" height="40" fill="#fdb913" stroke="#000000" stroke-width="1.5" rx="0"/>
<rect x="330" y="590" width="22" height="40" fill="#fdb913" stroke="#000000" stroke-width="1.5" rx="0"/>
<rect x="352" y="590" width="22" height="40" fill="#fdb913" stroke="#000000" stroke-width="1.5" rx="0"/>
<rect x="374" y="590" width="22" height="40" fill="#fdb913" stroke="#000000" stroke-width="1.5" rx="0"/>
<rect x="396" y="590" width="22" height="40" fill="#fdb913" stroke="#000000" stroke-width="1.5" rx="0"/>
<rect x="418" y="590" width="22" height="40" fill="#fdb913" stroke="#000000" stroke-width="1.5" rx="0"/>
<rect x="440" y="590" width="22" height="40" fill="#fdb913" stroke="#000000" stroke-width="1.5" rx="0"/>
<rect x="462" y="590" width="22" height="40" fill="#fdb913" stroke="#000000" stroke-width="1.5" rx="0"/>
<rect x="220" y="640" width="22" height="40" fill="#fce3a4" stroke="#000000" stroke-width="1.5" rx="0"/>
<rect x="242" y="640" width="22" height="40" fill="#fce3a4" stroke="#000000" stroke-width="1.5" rx="0"/>
<rect x="264" y="640" width="22" height="40" fill="#fce3a4" stroke="#000000" stroke-width="1.5" rx="0"/>
<rect x="286" y="640" width="22" height="40" fill="#fce3a4" stroke="#000000" stroke-width="1.5" rx="0"/>
<rect x="308" y="640" width="22" height="40" fill="#fce3a4" stroke="#000000" stroke-width="1.5" rx="0"/>
<rect x="330" y="640" width="22" height="40" fill="#fce3a4" stroke="#000000" stroke-width="1.5" rx="0"/>
<text x="1306" y="640" font-family="Roboto, 'Helvetica Neue', Arial, sans-serif" font-size="22" fill="#000000" text-anchor="start" font-weight="normal" font-style="italic">→ subtract smaller</text>
<text x="170" y="752" font-family="'Roboto Mono', 'Menlo', 'Consolas', monospace" font-size="30" fill="#000000" text-anchor="end" font-weight="normal" font-style="normal"> 6,  6</text>
<rect x="220" y="720" width="22" height="40" fill="#fdb913" stroke="#000000" stroke-width="1.5" rx="0"/>
<rect x="242" y="720" width="22" height="40" fill="#fdb913" stroke="#000000" stroke-width="1.5" rx="0"/>
<rect x="264" y="720" width="22" height="40" fill="#fdb913" stroke="#000000" stroke-width="1.5" rx="0"/>
<rect x="286" y="720" width="22" height="40" fill="#fdb913" stroke="#000000" stroke-width="1.5" rx="0"/>
<rect x="308" y="720" width="22" height="40" fill="#fdb913" stroke="#000000" stroke-width="1.5" rx="0"/>
<rect x="330" y="720" width="22" height="40" fill="#fdb913" stroke="#000000" stroke-width="1.5" rx="0"/>
<rect x="220" y="770" width="22" height="40" fill="#fce3a4" stroke="#000000" stroke-width="1.5" rx="0"/>
<rect x="242" y="770" width="22" height="40" fill="#fce3a4" stroke="#000000" stroke-width="1.5" rx="0"/>
<rect x="264" y="770" width="22" height="40" fill="#fce3a4" stroke="#000000" stroke-width="1.5" rx="0"/>
<rect x="286" y="770" width="22" height="40" fill="#fce3a4" stroke="#000000" stroke-width="1.5" rx="0"/>
<rect x="308" y="770" width="22" height="40" fill="#fce3a4" stroke="#000000" stroke-width="1.5" rx="0"/>
<rect x="330" y="770" width="22" height="40" fill="#fce3a4" stroke="#000000" stroke-width="1.5" rx="0"/>
<text x="800.0" y="890" font-family="Roboto, 'Helvetica Neue', Arial, sans-serif" font-size="44" fill="#000000" text-anchor="middle" font-weight="bold" font-style="normal">→ gcd = 6</text>
<text x="800.0" y="1140" font-family="Roboto, 'Helvetica Neue', Arial, sans-serif" font-size="22" fill="#000000" text-anchor="middle" font-weight="normal" font-style="normal">credit: Wikipedia (File:GCD_through_successive_subtractions.svg)</text>
</svg>
