<svg xmlns="http://www.w3.org/2000/svg" viewBox="0 0 1400 800" preserveAspectRatio="xMidYMid meet">
<rect x="0" y="0" width="1400" height="800" fill="#ffffff"/>
<defs>
  <marker id="arrow" viewBox="0 0 10 10" refX="9" refY="5" markerWidth="7" markerHeight="7" orient="auto-start-reverse">
    <path d="M0,0 L10,5 L0,10 Z" fill="context-stroke"/>
  </marker>
  <marker id="arrow-gold" viewBox="0 0 10 10" refX="9" refY="5" markerWidth="7" markerHeight="7" orient="auto-start-reverse">
    <path d="M0,0 L10,5 L0,10 Z" fill="#fdb913"/>
  </marker>
</defs>
<line x1="60.0" y1="60.0" x2="292.72727272727275" y2="60.0" stroke="#000000" stroke-width="4"/>
<line x1="409.09090909090907" y1="60.0" x2="1340.0" y2="60.0" stroke="#000000" stroke-width="4"/>
<line x1="60.0" y1="740.0" x2="1340.0" y2="740.0" stroke="#000000" stroke-width="4"/>
<line x1="60.0" y1="60.0" x2="60.0" y2="740.0" stroke="#000000" stroke-width="4"/>
<line x1="1340.0" y1="60.0" x2="1340.0" y2="351.42857142857144" stroke="#000000" stroke-width="4"/>
<line x1="1340.0" y1="448.57142857142856" x2="1340.0" y2="740.0" stroke="#000000" stroke-width="4"/>
<line x1="176.36363636363637" y1="157.14285714285714" x2="1107.2727272727273" y2="157.14285714285714" stroke="#000000" stroke-width="4"/>
<line x1="292.72727272727275" y1="254.28571428571428" x2="292.72727272727275" y2="642.8571428571429" stroke="#000000" stroke-width="4"/>
<line x1="409.09090909090907" y1="254.28571428571428" x2="990.9090909090909" y2="254.28571428571428" stroke="#000000" stroke-width="4"/>
<line x1="525.4545454545455" y1="351.42857142857144" x2="990.9090909090909" y2="351.42857142857144" stroke="#000000" stroke-width="4"/>
<line x1="641.8181818181818" y1="448.57142857142856" x2="990.9090909090909" y2="448.57142857142856" stroke="#000000" stroke-width="4"/>
<line x1="409.09090909090907" y1="448.57142857142856" x2="525.4545454545455" y2="448.57142857142856" stroke="#000000" stroke-width="4"/>
<line x1="409.09090909090907" y1="545.7142857142857" x2="1107.2727272727273" y2="545.7142857142857" stroke="#000000" stroke-width="4"/>
<line x1="1107.2727272727273" y1="157.14285714285714" x2="1107.2727272727273" y2="642.8571428571429" stroke="#000000" stroke-width="4"/>
<line x1="1223.6363636363635" y1="254.28571428571428" x2="1223.6363636363635" y2="545.7142857142857" stroke="#000000" stroke-width="4"/>
<line x1="525.4545454545455" y1="642.8571428571429" x2="1223.6363636363635" y2="642.8571428571429" stroke="#000000" stroke-width="4"/>
<line x1="350.9090909090909" y1="30.85714285714286" x2="350.9090909090909" y2="205.71428571428572" stroke="#fdb913" stroke-width="5"/>
<line x1="350.9090909090909" y1="205.71428571428572" x2="234.54545454545453" y2="205.71428571428572" stroke="#fdb913" stroke-width="5"/>
<line x1="234.54545454545453" y1="205.71428571428572" x2="234.54545454545453" y2="594.2857142857142" stroke="#fdb913" stroke-width="5"/>
<line x1="234.54545454545453" y1="594.2857142857142" x2="350.9090909090909" y2="594.2857142857142" stroke="#fdb913" stroke-width="5"/>
<line x1="350.9090909090909" y1="594.2857142857142" x2="350.9090909090909" y2="691.4285714285714" stroke="#fdb913" stroke-width="5"/>
<line x1="350.9090909090909" y1="691.4285714285714" x2="467.27272727272725" y2="691.4285714285714" stroke="#fdb913" stroke-width="5"/>
<line x1="467.27272727272725" y1="691.4285714285714" x2="467.27272727272725" y2="594.2857142857142" stroke="#fdb913" stroke-width="5"/>
<line x1="467.27272727272725" y1="594.2857142857142" x2="1049.090909090909" y2="594.2857142857142" stroke="#fdb913" stroke-width="5"/>
<line x1="1049.090909090909" y1="594.2857142857142" x2="1049.090909090909" y2="400.0" stroke="#fdb913" stroke-width="5"/>
<line x1="1049.090909090909" y1="400.0" x2="1281.8181818181818" y2="400.0" stroke="#fdb913" stroke-width="5"/>
<line x1="1281.8181818181818" y1="400.0" x2="1374.909090909091" y2="400.0" stroke="#fdb913" stroke-width="5"/>
<polygon points="1374.909090909091,388.0 1396.909090909091,400.0 1374.909090909091,412.0" fill="#fdb913" stroke="#fdb913" stroke-width="1"/>
</svg>
