<svg xmlns="http://www.w3.org/2000/svg" viewBox="0 0 1600 1200" preserveAspectRatio="xMidYMid meet">
<rect x="0" y="0" width="1600" height="1200" fill="#ffffff"/>
<defs>
  <marker id="arrow" viewBox="0 0 10 10" refX="9" refY="5" markerWidth="7" markerHeight="7" orient="auto-start-reverse">
    <path d="M0,0 L10,5 L0,10 Z" fill="context-stroke"/>
  </marker>
  <marker id="arrow-gold" viewBox="0 0 10 10" refX="9" refY="5" markerWidth="7" markerHeight="7" orient="auto-start-reverse">
    <path d="M0,0 L10,5 L0,10 Z" fill="#fdb913"/>
  </marker>
</defs>
<path d="M 902.0,1038.6 L 901.9,1041.7 L 901.2,1110.0" stroke="#555555" fill="none" stroke-width="2.0" stroke-linecap="round" stroke-linejoin="round"/>
<path d="M 863.9,296.1 L 854.3,292.4 L 838.5,292.4 L 812.2,292.4 L 785.6,292.5 L 756.2,292.5 L 727.8,292.5" stroke="#555555" fill="none" stroke-width="2.0" stroke-linecap="round" stroke-linejoin="round"/>
<path d="M 863.7,336.8 L 838.3,336.6 L 812.1,336.4 L 784.9,336.2 L 760.9,336.0 L 755.8,335.9 L 752.1,335.9 L 730.2,335.8 L 705.9,335.5 L 672.4,335.2 L 670.4,335.2 L 652.3,335.0" stroke="#555555" fill="none" stroke-width="2.0" stroke-linecap="round" stroke-linejoin="round"/>
<path d="M 879.8,1038.6 L 878.9,1042.2 L 878.5,1044.7 L 878.2,1068.3 L 878.1,1085.0" stroke="#555555" fill="none" stroke-width="2.0" stroke-linecap="round" stroke-linejoin="round"/>
<path d="M 595.0,197.8 L 626.6,198.2 L 648.2,198.3 L 652.6,198.3" stroke="#555555" fill="none" stroke-width="2.0" stroke-linecap="round" stroke-linejoin="round"/>
<path d="M 650.6,746.1 L 651.1,686.9 L 651.0,677.8 L 650.9,668.1 L 651.1,655.7 L 651.1,649.1 L 651.0,642.1 L 651.0,614.0 L 651.1,609.2 L 651.1,604.0 L 651.2,566.5 L 651.5,543.7 L 651.5,539.9 L 651.6,520.2 L 651.8,497.9 L 651.9,471.8" stroke="#555555" fill="none" stroke-width="2.0" stroke-linecap="round" stroke-linejoin="round"/>
<path d="M 451.6,403.7 L 475.6,403.6 L 479.8,403.6 L 484.3,403.6 L 508.8,403.6 L 532.0,403.4 L 536.4,403.4 L 540.7,403.4 L 559.7,403.6 L 564.7,403.6 L 573.8,403.5 L 588.5,403.5 L 593.5,403.5" stroke="#555555" fill="none" stroke-width="2.0" stroke-linecap="round" stroke-linejoin="round"/>
<path d="M 999.9,1038.6 L 999.9,1041.8 L 1000.5,1110.0" stroke="#555555" fill="none" stroke-width="2.0" stroke-linecap="round" stroke-linejoin="round"/>
<path d="M 1219.2,1110.0 L 1219.1,1092.2 L 1220.1,1036.5 L 1220.1,1033.6 L 1220.2,939.5 L 1220.4,917.6 L 1219.8,874.1 L 1220.2,842.5 L 1220.2,839.1 L 1220.1,804.5 L 1220.5,748.7 L 1220.6,744.7" stroke="#555555" fill="none" stroke-width="2.0" stroke-linecap="round" stroke-linejoin="round"/>
<path d="M 1220.6,744.7 L 1220.6,740.5 L 1221.1,674.9 L 1220.9,646.4 L 1221.3,551.8 L 1221.4,536.2" stroke="#555555" fill="none" stroke-width="2.0" stroke-linecap="round" stroke-linejoin="round"/>
<path d="M 600.1,335.2 L 594.4,335.2 L 588.7,335.2 L 578.0,334.7 L 564.5,334.5 L 536.6,334.7 L 508.3,334.7 L 484.9,334.6 L 479.8,334.6 L 476.1,334.6 L 451.9,334.4" stroke="#555555" fill="none" stroke-width="2.0" stroke-linecap="round" stroke-linejoin="round"/>
<path d="M 1024.7,1110.0 L 1024.6,1104.4 L 1024.2,1047.6 L 1024.6,1044.0 L 1026.3,1038.7 L 1028.1,1035.9 L 1028.4,996.3 L 1028.4,991.1 L 1028.3,988.1 L 1028.0,955.7 L 1027.9,947.5 L 1027.8,940.5 L 1027.8,931.6 L 1027.8,889.5 L 1027.8,884.6" stroke="#555555" fill="none" stroke-width="2.0" stroke-linecap="round" stroke-linejoin="round"/>
<path d="M 462.9,266.4 L 465.9,266.4 L 479.6,266.4 L 508.7,266.4 L 537.1,266.4" stroke="#555555" fill="none" stroke-width="2.0" stroke-linecap="round" stroke-linejoin="round"/>
<path d="M 802.7,1110.0 L 802.5,1041.4 L 802.5,1038.2 L 802.5,1035.5 L 802.5,1034.2 L 804.8,940.8 L 809.8,928.5 L 810.1,888.6 L 810.1,884.2 L 810.1,878.9 L 809.9,819.0 L 809.9,815.3 L 810.0,810.4 L 810.3,751.1 L 810.2,746.8" stroke="#555555" fill="none" stroke-width="2.0" stroke-linecap="round" stroke-linejoin="round"/>
<path d="M 1122.0,1110.0 L 1122.0,1109.6" stroke="#555555" fill="none" stroke-width="2.0" stroke-linecap="round" stroke-linejoin="round"/>
<path d="M 649.8,883.6 L 654.8,883.7 L 678.4,883.9 L 703.0,884.0 L 727.0,884.0 L 753.4,884.1 L 782.7,884.1 L 810.1,884.2 L 839.1,884.2 L 866.0,884.3 L 894.2,884.4 L 918.0,884.4 L 923.4,884.4 L 952.4,884.5 L 976.0,884.5 L 1001.1,884.6 L 1022.0,884.6 L 1022.9,884.6 L 1027.8,884.6" stroke="#555555" fill="none" stroke-width="2.0" stroke-linecap="round" stroke-linejoin="round"/>
<path d="M 863.9,296.1 L 863.7,336.8 L 863.6,400.3 L 865.0,404.4" stroke="#555555" fill="none" stroke-width="2.0" stroke-linecap="round" stroke-linejoin="round"/>
<path d="M 589.5,940.7 L 596.9,940.7 L 621.8,940.8 L 649.6,940.9 L 658.3,941.0 L 674.1,941.0 L 677.0,941.0 L 698.2,941.1 L 702.7,941.1 L 707.3,941.2 L 727.0,941.2 L 749.3,941.3 L 753.1,941.4 L 782.8,941.5" stroke="#555555" fill="none" stroke-width="2.0" stroke-linecap="round" stroke-linejoin="round"/>
<path d="M 537.1,266.4 L 565.1,266.3 L 575.4,266.3 L 589.1,266.3 L 594.7,266.3 L 600.7,266.3 L 626.0,266.3 L 630.2,266.3 L 647.3,266.3 L 652.7,266.3 L 679.6,266.2" stroke="#555555" fill="none" stroke-width="2.0" stroke-linecap="round" stroke-linejoin="round"/>
<path d="M 703.8,746.1 L 703.8,740.9 L 703.9,731.9 L 704.2,681.7 L 704.2,678.0 L 704.2,673.0 L 704.5,626.5 L 704.5,613.6 L 704.5,609.8 L 704.6,605.0 L 704.6,594.4 L 704.9,541.1 L 705.2,477.0 L 705.2,472.5 L 705.3,467.7 L 705.6,408.5 L 705.5,404.0 L 705.6,399.4 L 705.8,364.4 L 705.9,335.5" stroke="#555555" fill="none" stroke-width="2.0" stroke-linecap="round" stroke-linejoin="round"/>
<path d="M 810.2,746.8 L 810.2,741.3 L 810.3,682.7 L 810.3,678.2 L 810.3,674.2 L 810.9,614.8 L 810.9,609.8 L 810.9,605.6 L 810.6,545.7 L 810.5,541.1 L 810.6,536.9 L 811.4,477.5 L 811.5,473.3 L 811.4,468.1 L 812.3,409.0 L 812.1,404.2" stroke="#555555" fill="none" stroke-width="2.0" stroke-linecap="round" stroke-linejoin="round"/>
<path d="M 866.5,747.0 L 866.5,741.8 L 867.0,683.3 L 867.0,678.4 L 867.0,674.4 L 866.6,615.0 L 866.6,609.9 L 866.6,604.9 L 867.0,546.4 L 867.1,541.5 L 867.0,536.9 L 866.9,478.2 L 866.9,473.7 L 866.8,468.3 L 866.8,409.4 L 865.0,404.4" stroke="#555555" fill="none" stroke-width="2.0" stroke-linecap="round" stroke-linejoin="round"/>
<path d="M 441.9,154.5 L 442.8,122.3 L 443.7,99.8 L 445.2,80.0" stroke="#555555" fill="none" stroke-width="2.0" stroke-linecap="round" stroke-linejoin="round"/>
<path d="M 537.5,155.4 L 545.0,154.3 L 550.5,154.6 L 554.5,153.9 L 557.2,152.0 L 558.4,149.7 L 558.5,146.9 L 557.7,143.8 L 557.5,127.0" stroke="#555555" fill="none" stroke-width="2.0" stroke-linecap="round" stroke-linejoin="round"/>
<path d="M 1122.0,1109.6 L 1122.6,1039.0" stroke="#555555" fill="none" stroke-width="2.0" stroke-linecap="round" stroke-linejoin="round"/>
<path d="M 615.5,403.8 L 623.1,403.8 L 651.9,403.9 L 676.8,403.9 L 705.5,404.0 L 729.4,404.0 L 751.3,404.1 L 755.6,404.1 L 760.6,404.1 L 783.9,404.2 L 812.1,404.2 L 837.6,404.3 L 865.0,404.4 L 891.8,404.4 L 894.6,404.4 L 918.1,404.5 L 921.3,404.5 L 925.7,404.5" stroke="#555555" fill="none" stroke-width="2.0" stroke-linecap="round" stroke-linejoin="round"/>
<path d="M 1260.5,254.9 L 1239.2,254.6 L 1237.5,254.6 L 1124.1,254.2 L 1106.6,253.8 L 1063.9,252.9 L 1018.4,252.0 L 1009.7,251.0 L 999.6,247.6 L 989.8,242.7 L 969.6,229.6 L 913.4,185.3 L 901.8,175.8 L 893.6,167.7 L 887.8,159.7 L 883.9,152.8 L 877.8,139.3 L 875.6,134.9 L 872.7,130.4 L 864.1,119.8 L 848.9,102.4 L 833.7,88.5 L 822.6,81.4 L 819.9,80.0" stroke="#555555" fill="none" stroke-width="2.0" stroke-linecap="round" stroke-linejoin="round"/>
<path d="M 587.3,1036.7 L 593.1,1036.7" stroke="#555555" fill="none" stroke-width="2.0" stroke-linecap="round" stroke-linejoin="round"/>
<path d="M 981.4,595.1 L 1016.4,594.7" stroke="#555555" fill="none" stroke-width="2.0" stroke-linecap="round" stroke-linejoin="round"/>
<path d="M 1147.4,1038.6 L 1147.4,1035.8 L 1147.4,1034.6 L 1147.2,959.3 L 1146.3,953.5 L 1143.1,947.4 L 1142.0,939.3 L 1144.5,843.5 L 1144.6,839.4 L 1144.7,836.1 L 1146.4,747.5 L 1146.4,744.0" stroke="#555555" fill="none" stroke-width="2.0" stroke-linecap="round" stroke-linejoin="round"/>
<path d="M 1080.4,746.0 L 1080.4,741.4 L 1080.5,713.9 L 1080.5,679.0" stroke="#555555" fill="none" stroke-width="2.0" stroke-linecap="round" stroke-linejoin="round"/>
<path d="M 1122.8,679.1 L 1080.5,679.0 L 1032.6,678.8 L 1009.5,678.8 L 984.6,678.8 L 952.2,678.6 L 929.1,678.6 L 924.2,678.5 L 918.5,678.5 L 895.4,678.5 L 867.0,678.4 L 838.7,678.3 L 810.3,678.2 L 782.4,678.2 L 758.9,678.1 L 754.4,678.1 L 749.8,678.1 L 727.5,678.0 L 704.2,678.0 L 678.1,677.9 L 670.1,677.9 L 651.0,677.8" stroke="#555555" fill="none" stroke-width="2.0" stroke-linecap="round" stroke-linejoin="round"/>
<path d="M 976.0,960.7 L 976.0,940.6 L 976.0,889.9 L 976.0,884.5 L 976.0,880.4 L 975.9,842.1 L 975.9,838.8 L 975.8,746.8" stroke="#555555" fill="none" stroke-width="2.0" stroke-linecap="round" stroke-linejoin="round"/>
<path d="M 1054.3,542.1 L 1030.2,542.2 L 981.1,542.2 L 953.9,542.2 L 929.6,541.7 L 924.6,541.6 L 919.1,541.6 L 895.7,541.4 L 867.1,541.5 L 839.5,541.2 L 815.9,541.1 L 810.5,541.1 L 806.4,541.1 L 782.9,541.0 L 772.1,541.0 L 759.6,540.9 L 755.0,540.9 L 750.2,540.9 L 728.0,541.1 L 704.9,541.1" stroke="#555555" fill="none" stroke-width="2.0" stroke-linecap="round" stroke-linejoin="round"/>
<path d="M 918.1,404.5 L 917.9,400.5 L 918.8,351.2 L 918.8,339.2 L 918.9,327.8 L 919.0,312.5" stroke="#555555" fill="none" stroke-width="2.0" stroke-linecap="round" stroke-linejoin="round"/>
<path d="M 923.5,746.8 L 923.6,743.1 L 923.6,742.0 L 924.2,678.5 L 924.2,644.6 L 924.2,614.5 L 924.2,609.9 L 924.6,541.6 L 924.7,497.2 L 924.7,477.7 L 924.7,473.4 L 924.7,453.1 L 924.7,446.6 L 924.9,435.4 L 925.4,421.6 L 925.7,404.5" stroke="#555555" fill="none" stroke-width="2.0" stroke-linecap="round" stroke-linejoin="round"/>
<path d="M 442.6,183.3 L 442.2,178.4 L 441.9,154.5" stroke="#555555" fill="none" stroke-width="2.0" stroke-linecap="round" stroke-linejoin="round"/>
<path d="M 981.1,609.9 L 953.6,609.9 L 929.8,609.9 L 924.2,609.9 L 919.7,609.9 L 895.0,609.9 L 866.6,609.9 L 838.4,609.8 L 810.9,609.8 L 782.0,609.8 L 754.7,609.8 L 727.9,609.8 L 704.5,609.8 L 695.4,609.8 L 683.3,609.8 L 677.6,609.7 L 655.7,609.2 L 651.1,609.2 L 646.2,609.1 L 640.6,609.7 L 622.8,609.7 L 616.1,609.7 L 591.6,609.7" stroke="#555555" fill="none" stroke-width="2.0" stroke-linecap="round" stroke-linejoin="round"/>
<path d="M 984.3,746.8 L 984.4,742.5 L 984.5,683.0 L 984.6,678.8 L 984.6,674.2 L 984.7,647.3 L 983.0,644.6 L 980.9,641.4 L 981.1,609.9 L 981.4,595.1 L 981.1,546.3 L 981.1,542.2" stroke="#555555" fill="none" stroke-width="2.0" stroke-linecap="round" stroke-linejoin="round"/>
<path d="M 592.5,677.3 L 560.2,676.9" stroke="#555555" fill="none" stroke-width="2.0" stroke-linecap="round" stroke-linejoin="round"/>
<path d="M 877.8,139.3 L 954.3,141.0 L 1079.8,143.8 L 1082.7,143.4 L 1085.6,141.8 L 1086.9,138.8 L 1089.2,91.3 L 1089.4,80.0" stroke="#555555" fill="none" stroke-width="2.0" stroke-linecap="round" stroke-linejoin="round"/>
<path d="M 1220.2,839.1 L 1215.8,839.1 L 1168.8,839.1 L 1148.8,839.4 L 1144.6,839.4 L 1140.2,839.5 L 1120.8,839.9 L 1096.5,843.3 L 1072.5,843.0 L 1049.3,843.1 L 1024.6,842.9 L 1001.1,842.3 L 975.9,842.1 L 951.3,841.7 L 924.4,841.5" stroke="#555555" fill="none" stroke-width="2.0" stroke-linecap="round" stroke-linejoin="round"/>
<path d="M 752.3,1110.0 L 752.7,1041.3 L 752.7,1040.7 L 752.7,1037.9 L 752.7,1035.1 L 752.7,1034.4 L 753.1,941.4 L 753.4,888.4 L 753.4,884.1 L 753.4,878.5 L 753.7,815.0 L 753.9,750.7 L 754.1,746.7" stroke="#555555" fill="none" stroke-width="2.0" stroke-linecap="round" stroke-linejoin="round"/>
<path d="M 593.5,471.6 L 588.3,471.6 L 566.0,471.9 L 562.1,471.8 L 559.0,471.7 L 556.9,471.7 L 536.1,471.7 L 507.9,471.6 L 479.5,471.4 L 450.4,471.6" stroke="#555555" fill="none" stroke-width="2.0" stroke-linecap="round" stroke-linejoin="round"/>
<path d="M 521.7,133.9 L 518.5,137.7 L 515.7,140.7 L 509.0,148.0 L 504.1,151.2 L 498.8,153.5 L 495.6,154.4 L 488.2,154.7 L 482.2,154.7 L 451.2,154.7 L 446.8,154.7 L 441.9,154.5" stroke="#555555" fill="none" stroke-width="2.0" stroke-linecap="round" stroke-linejoin="round"/>
<path d="M 1238.9,419.8 L 1239.2,254.6" stroke="#555555" fill="none" stroke-width="2.0" stroke-linecap="round" stroke-linejoin="round"/>
<path d="M 924.7,473.4 L 919.7,473.3 L 895.7,473.4 L 866.9,473.7 L 838.2,473.4 L 811.5,473.3 L 783.1,472.8 L 755.4,472.7 L 728.9,472.5 L 705.2,472.5 L 677.2,472.5 L 651.9,471.8 L 622.9,471.5 L 599.6,471.6 L 593.5,471.6" stroke="#555555" fill="none" stroke-width="2.0" stroke-linecap="round" stroke-linejoin="round"/>
<path d="M 567.1,540.5 L 589.3,540.5 L 593.4,540.5" stroke="#555555" fill="none" stroke-width="2.0" stroke-linecap="round" stroke-linejoin="round"/>
<path d="M 536.1,471.7 L 536.2,467.2 L 536.3,451.9 L 536.4,403.4 L 536.6,339.1 L 536.6,334.7 L 536.7,330.4 L 537.0,271.0 L 537.1,266.4 L 537.1,261.8 L 537.2,228.0 L 537.2,208.4 L 537.2,202.5 L 537.2,197.8 L 537.3,192.9 L 537.5,181.7 L 537.6,173.8 L 537.5,162.1 L 537.5,155.4 L 535.9,151.5 L 534.4,148.1 L 532.6,145.1 L 530.7,142.3 L 527.8,139.4 L 521.7,133.9 L 508.4,121.3 L 495.8,108.5 L 493.0,104.8 L 490.3,99.9 L 487.9,94.5 L 486.3,86.4 L 486.2,80.0" stroke="#555555" fill="none" stroke-width="2.0" stroke-linecap="round" stroke-linejoin="round"/>
<path d="M 923.4,884.4 L 924.4,841.5 L 924.0,819.5 L 923.9,816.0 L 923.6,755.9 L 923.6,751.6 L 923.6,750.6 L 923.5,746.8" stroke="#555555" fill="none" stroke-width="2.0" stroke-linecap="round" stroke-linejoin="round"/>
<path d="M 592.0,814.1 L 597.8,814.1 L 612.1,814.2 L 622.1,814.3 L 629.5,814.3 L 639.9,814.4 L 645.2,814.4 L 650.2,814.4 L 654.9,814.5 L 678.2,814.6 L 703.4,814.7 L 726.9,814.9 L 753.7,815.0 L 782.6,815.2 L 809.9,815.3 L 839.1,815.5 L 865.8,815.7 L 895.6,815.8 L 919.3,816.0 L 923.9,816.0" stroke="#555555" fill="none" stroke-width="2.0" stroke-linecap="round" stroke-linejoin="round"/>
<path d="M 1260.5,645.5 L 1220.9,646.4 L 1176.3,646.0 L 1130.3,645.5 L 1032.7,644.7 L 983.0,644.6 L 953.6,644.6 L 929.1,644.6 L 924.2,644.6" stroke="#555555" fill="none" stroke-width="2.0" stroke-linecap="round" stroke-linejoin="round"/>
<path d="M 1128.8,398.2 L 1124.7,390.1 L 1123.5,385.3 L 1122.6,378.2 L 1122.6,364.5 L 1123.7,308.9 L 1124.9,295.4 L 1122.6,281.4 L 1124.1,254.2" stroke="#555555" fill="none" stroke-width="2.0" stroke-linecap="round" stroke-linejoin="round"/>
<path d="M 754.1,746.7 L 753.9,741.8 L 754.4,678.1 L 754.7,614.0 L 754.7,609.8 L 754.7,605.3 L 754.8,596.0 L 755.0,540.9 L 755.3,478.0 L 755.4,472.7 L 755.4,468.0 L 755.6,404.1" stroke="#555555" fill="none" stroke-width="2.0" stroke-linecap="round" stroke-linejoin="round"/>
<path d="M 1030.2,542.2 L 1030.4,456.1" stroke="#555555" fill="none" stroke-width="2.0" stroke-linecap="round" stroke-linejoin="round"/>
<path d="M 1096.5,843.3 L 1096.5,839.3 L 1098.4,745.5" stroke="#555555" fill="none" stroke-width="2.0" stroke-linecap="round" stroke-linejoin="round"/>
<path d="M 1221.1,674.9 L 1260.5,674.9" stroke="#555555" fill="none" stroke-width="2.0" stroke-linecap="round" stroke-linejoin="round"/>
<path d="M 493.0,104.8 L 484.9,110.4" stroke="#555555" fill="none" stroke-width="2.0" stroke-linecap="round" stroke-linejoin="round"/>
<path d="M 853.6,1110.0 L 853.6,1041.3 L 853.6,1038.5" stroke="#555555" fill="none" stroke-width="2.0" stroke-linecap="round" stroke-linejoin="round"/>
<path d="M 595.0,197.8 L 565.3,197.9 L 562.2,197.8 L 537.2,197.8 L 521.5,197.7 L 516.9,197.1 L 512.8,196.1 L 507.1,193.6 L 494.1,186.7 L 486.5,184.4 L 481.1,183.5 L 468.0,183.2 L 453.9,183.2 L 451.6,183.2 L 447.6,183.2 L 442.6,183.3" stroke="#555555" fill="none" stroke-width="2.0" stroke-linecap="round" stroke-linejoin="round"/>
<path d="M 1184.8,744.2 L 1184.9,739.9 L 1185.2,719.3 L 1184.3,714.6 L 1183.4,713.5 L 1181.5,712.4 L 1174.7,711.0 L 1168.1,707.2" stroke="#555555" fill="none" stroke-width="2.0" stroke-linecap="round" stroke-linejoin="round"/>
<path d="M 1176.2,619.0 L 1176.2,604.6 L 1173.2,597.1 L 1162.3,584.9 L 1160.8,552.4 L 1157.4,546.7" stroke="#555555" fill="none" stroke-width="2.0" stroke-linecap="round" stroke-linejoin="round"/>
<path d="M 702.3,1037.9 L 702.3,1033.4 L 702.6,976.0 L 702.6,962.7 L 702.7,941.1 L 703.0,886.9 L 703.0,884.0 L 703.0,880.1 L 703.3,819.3 L 703.4,814.7 L 703.4,810.1 L 703.6,751.0 L 703.8,746.1" stroke="#555555" fill="none" stroke-width="2.0" stroke-linecap="round" stroke-linejoin="round"/>
<path d="M 812.1,404.2 L 811.6,400.0 L 812.1,340.5 L 812.1,336.4 L 812.1,333.0 L 812.2,292.4 L 812.7,264.2 L 813.0,244.4" stroke="#555555" fill="none" stroke-width="2.0" stroke-linecap="round" stroke-linejoin="round"/>
<path d="M 1049.3,843.1 L 1049.3,838.9 L 1049.2,751.3 L 1049.2,746.7" stroke="#555555" fill="none" stroke-width="2.0" stroke-linecap="round" stroke-linejoin="round"/>
<path d="M 879.8,1038.6 L 882.9,1035.6 L 882.6,971.2 L 883.6,967.2 L 886.1,961.5" stroke="#555555" fill="none" stroke-width="2.0" stroke-linecap="round" stroke-linejoin="round"/>
<path d="M 512.3,610.5 L 515.3,610.5 L 529.7,610.4 L 542.3,610.4 L 552.2,610.4 L 560.2,610.4 L 566.2,610.4 L 569.1,610.4 L 591.6,609.7" stroke="#555555" fill="none" stroke-width="2.0" stroke-linecap="round" stroke-linejoin="round"/>
<path d="M 1219.8,874.1 L 1183.9,874.1" stroke="#555555" fill="none" stroke-width="2.0" stroke-linecap="round" stroke-linejoin="round"/>
<path d="M 1080.5,713.9 L 1121.8,713.9" stroke="#555555" fill="none" stroke-width="2.0" stroke-linecap="round" stroke-linejoin="round"/>
<path d="M 597.4,129.8 L 601.2,130.0 L 609.1,131.1 L 617.4,131.4 L 626.8,131.1 L 640.3,129.6 L 647.2,129.4 L 652.6,129.5" stroke="#555555" fill="none" stroke-width="2.0" stroke-linecap="round" stroke-linejoin="round"/>
<path d="M 1032.7,644.7 L 1032.6,678.8 L 1032.7,742.3 L 1032.7,746.7" stroke="#555555" fill="none" stroke-width="2.0" stroke-linecap="round" stroke-linejoin="round"/>
<path d="M 853.6,1038.5 L 853.5,1035.8 L 853.5,1034.5 L 853.4,1024.3 L 854.3,975.9 L 854.8,972.3 L 856.1,967.2 L 864.2,953.5 L 865.9,948.5 L 866.7,940.7 L 866.1,889.0 L 866.0,884.3 L 866.0,879.2 L 865.9,819.7 L 865.8,815.7 L 865.9,810.5 L 866.5,752.0 L 866.5,747.0" stroke="#555555" fill="none" stroke-width="2.0" stroke-linecap="round" stroke-linejoin="round"/>
<path d="M 1260.5,745.3 L 1220.6,744.7 L 1184.8,744.2 L 1169.6,744.2 L 1146.4,744.0 L 1123.0,744.6 L 1098.4,745.5 L 1080.4,746.0 L 1073.6,746.2 L 1049.2,746.7 L 1032.7,746.7 L 1024.3,746.9 L 1009.6,746.8 L 1001.0,746.8 L 984.3,746.8 L 975.8,746.8 L 952.2,746.8 L 929.2,746.8 L 928.4,746.8 L 923.5,746.8 L 919.3,746.8 L 918.2,746.8 L 906.5,746.9 L 895.6,746.9 L 886.6,746.9 L 878.6,746.9 L 866.5,747.0 L 846.4,746.9 L 839.0,746.9 L 810.2,746.8 L 782.6,746.9" stroke="#555555" fill="none" stroke-width="2.0" stroke-linecap="round" stroke-linejoin="round"/>
<path d="M 1220.1,804.5 L 1169.8,804.1" stroke="#555555" fill="none" stroke-width="2.0" stroke-linecap="round" stroke-linejoin="round"/>
<path d="M 1220.4,917.6 L 1184.1,917.9" stroke="#555555" fill="none" stroke-width="2.0" stroke-linecap="round" stroke-linejoin="round"/>
<path d="M 648.5,1110.0 L 648.9,1040.8 L 648.8,1037.3" stroke="#555555" fill="none" stroke-width="2.0" stroke-linecap="round" stroke-linejoin="round"/>
<path d="M 593.3,745.8 L 579.6,745.7 L 561.8,744.5 L 558.4,744.9" stroke="#555555" fill="none" stroke-width="2.0" stroke-linecap="round" stroke-linejoin="round"/>
<path d="M 1176.3,646.0 L 1176.2,619.0" stroke="#555555" fill="none" stroke-width="2.0" stroke-linecap="round" stroke-linejoin="round"/>
<path d="M 1237.5,254.6 L 1238.9,157.8 L 1241.1,80.0" stroke="#555555" fill="none" stroke-width="2.0" stroke-linecap="round" stroke-linejoin="round"/>
<path d="M 804.8,940.8 L 829.1,940.7 L 839.2,940.7 L 866.7,940.7 L 894.5,940.7 L 926.9,940.7 L 952.4,940.6 L 976.0,940.6 L 1027.8,940.5" stroke="#555555" fill="none" stroke-width="2.0" stroke-linecap="round" stroke-linejoin="round"/>
<path d="M 1220.1,1036.5 L 1216.5,1036.5 L 1147.4,1038.6 L 1122.6,1039.0 L 1119.6,1039.0 L 1118.1,1039.0 L 1034.5,1038.7 L 1026.3,1038.7 L 1022.8,1038.7 L 1021.3,1038.7 L 999.9,1038.6 L 952.3,1038.6 L 926.7,1038.6 L 924.7,1038.6 L 902.0,1038.6 L 879.8,1038.6 L 857.5,1038.5 L 856.4,1038.5 L 853.6,1038.5 L 850.5,1038.5 L 849.6,1038.5 L 828.9,1038.4 L 802.5,1038.2 L 756.2,1037.9 L 752.7,1037.9 L 748.9,1037.9 L 727.0,1038.2 L 702.3,1037.9 L 669.1,1037.7" stroke="#555555" fill="none" stroke-width="2.0" stroke-linecap="round" stroke-linejoin="round"/>
<path d="M 561.8,744.5 L 560.4,723.1 L 560.2,676.9 L 560.3,663.7 L 560.3,655.6 L 560.3,639.0 L 560.2,610.4" stroke="#555555" fill="none" stroke-width="2.0" stroke-linecap="round" stroke-linejoin="round"/>
<path d="M 479.9,498.3 L 479.6,476.3 L 479.5,471.4 L 479.5,466.9 L 479.8,403.6 L 479.8,334.6 L 479.6,266.4" stroke="#555555" fill="none" stroke-width="2.0" stroke-linecap="round" stroke-linejoin="round"/>
<path d="M 593.4,540.5 L 599.4,540.3 L 623.2,540.1 L 651.5,539.9 L 678.0,540.1 L 688.5,540.2 L 704.9,541.1" stroke="#555555" fill="none" stroke-width="2.0" stroke-linecap="round" stroke-linejoin="round"/>
<path d="M 592.5,677.3 L 616.2,677.4 L 622.8,677.5 L 651.0,677.8" stroke="#555555" fill="none" stroke-width="2.0" stroke-linecap="round" stroke-linejoin="round"/>
<path d="M 1024.6,842.9 L 1024.3,751.5 L 1024.3,746.9" stroke="#555555" fill="none" stroke-width="2.0" stroke-linecap="round" stroke-linejoin="round"/>
<path d="M 926.9,940.7 L 926.8,889.4 L 923.4,884.4" stroke="#555555" fill="none" stroke-width="2.0" stroke-linecap="round" stroke-linejoin="round"/>
<path d="M 927.4,1110.0 L 926.7,1038.6 L 926.7,1036.1 L 927.4,954.7 L 926.9,940.7" stroke="#555555" fill="none" stroke-width="2.0" stroke-linecap="round" stroke-linejoin="round"/>
<path d="M 652.6,198.3 L 652.6,172.3 L 652.6,157.8 L 652.6,134.9 L 652.6,129.5" stroke="#555555" fill="none" stroke-width="2.0" stroke-linecap="round" stroke-linejoin="round"/>
<path d="M 651.9,471.8 L 651.9,447.6 L 651.9,403.9 L 652.8,374.4 L 652.8,367.6 L 652.8,357.6 L 652.3,335.0 L 652.7,299.5 L 652.7,291.0 L 652.7,278.8 L 652.7,266.3 L 652.6,198.3" stroke="#555555" fill="none" stroke-width="2.0" stroke-linecap="round" stroke-linejoin="round"/>
<path d="M 648.8,1037.3 L 644.1,1037.3 L 634.1,1037.1" stroke="#555555" fill="none" stroke-width="2.0" stroke-linecap="round" stroke-linejoin="round"/>
<path d="M 593.5,403.5 L 599.9,403.6 L 615.5,403.8" stroke="#555555" fill="none" stroke-width="2.0" stroke-linecap="round" stroke-linejoin="round"/>
<path d="M 782.6,746.9 L 754.1,746.7 L 727.4,746.5 L 703.8,746.1 L 677.3,745.8 L 650.6,746.1 L 622.3,745.9 L 612.7,745.9 L 598.2,745.8 L 593.3,745.8" stroke="#555555" fill="none" stroke-width="2.0" stroke-linecap="round" stroke-linejoin="round"/>
<path d="M 590.7,882.7 L 596.9,882.7 L 621.7,882.8 L 644.5,883.4 L 649.8,883.6" stroke="#555555" fill="none" stroke-width="2.0" stroke-linecap="round" stroke-linejoin="round"/>
<path d="M 607.3,1036.8 L 593.1,1036.7" stroke="#555555" fill="none" stroke-width="2.0" stroke-linecap="round" stroke-linejoin="round"/>
<path d="M 621.8,1037.0 L 607.3,1036.8" stroke="#555555" fill="none" stroke-width="2.0" stroke-linecap="round" stroke-linejoin="round"/>
<path d="M 634.1,1037.1 L 621.8,1037.0" stroke="#555555" fill="none" stroke-width="2.0" stroke-linecap="round" stroke-linejoin="round"/>
<path d="M 648.8,1037.3 L 648.8,1033.2 L 648.8,1028.9 L 649.1,1002.4 L 649.3,975.9 L 649.4,972.2 L 649.6,940.9" stroke="#555555" fill="none" stroke-width="2.0" stroke-linecap="round" stroke-linejoin="round"/>
<path d="M 649.6,940.9 L 649.6,923.1 L 649.8,883.6 L 650.2,814.4 L 650.4,772.8 L 650.6,746.1" stroke="#555555" fill="none" stroke-width="2.0" stroke-linecap="round" stroke-linejoin="round"/>
<path d="M 669.1,1037.7 L 652.3,1037.3 L 648.8,1037.3" stroke="#555555" fill="none" stroke-width="2.0" stroke-linecap="round" stroke-linejoin="round"/>
<path d="M 1260.5,1036.0 L 1220.1,1036.5" stroke="#555555" fill="none" stroke-width="2.0" stroke-linecap="round" stroke-linejoin="round"/>
<path d="M 652.3,335.0 L 647.3,335.0 L 600.1,335.2" stroke="#555555" fill="none" stroke-width="2.0" stroke-linecap="round" stroke-linejoin="round"/>
<path d="M 755.6,404.1 L 755.8,335.9 L 756.2,292.5 L 757.1,248.0" stroke="#555555" fill="none" stroke-width="2.0" stroke-linecap="round" stroke-linejoin="round"/>
<path d="M 1027.8,884.6 L 1027.7,881.2 L 1027.6,846.7 L 1024.6,842.9" stroke="#555555" fill="none" stroke-width="2.0" stroke-linecap="round" stroke-linejoin="round"/>
<path d="M 592.5,677.3 L 592.2,640.7 L 592.1,633.1 L 591.9,627.0" stroke="#000000" fill="none" stroke-width="5.0" stroke-linecap="round" stroke-linejoin="round"/>
<path d="M 589.8,923.2 L 590.7,882.7 L 591.0,870.0 L 591.4,856.2 L 591.7,841.5 L 592.0,814.1 L 593.2,773.2 L 593.4,768.1" stroke="#000000" fill="none" stroke-width="5.0" stroke-linecap="round" stroke-linejoin="round"/>
<path d="M 600.2,102.7 L 603.2,80.0" stroke="#000000" fill="none" stroke-width="5.0" stroke-linecap="round" stroke-linejoin="round"/>
<path d="M 593.5,403.5 L 594.1,360.8 L 594.4,335.2 L 594.3,322.8 L 594.4,316.1 L 594.2,307.5 L 594.2,303.9 L 594.3,290.2 L 594.3,283.1 L 594.7,266.3" stroke="#000000" fill="none" stroke-width="5.0" stroke-linecap="round" stroke-linejoin="round"/>
<path d="M 595.0,197.8 L 594.7,176.1 L 595.8,154.9 L 596.6,139.3 L 597.4,129.8" stroke="#000000" fill="none" stroke-width="5.0" stroke-linecap="round" stroke-linejoin="round"/>
<path d="M 587.9,1010.3 L 588.3,991.2 L 589.0,961.4 L 589.5,940.7" stroke="#000000" fill="none" stroke-width="5.0" stroke-linecap="round" stroke-linejoin="round"/>
<path d="M 593.3,745.8 L 593.2,740.8 L 592.7,723.2 L 592.6,705.9" stroke="#000000" fill="none" stroke-width="5.0" stroke-linecap="round" stroke-linejoin="round"/>
<path d="M 594.7,266.3 L 595.1,246.3 L 595.4,238.5 L 595.5,233.1 L 595.5,227.9 L 595.2,204.1 L 595.0,197.8" stroke="#000000" fill="none" stroke-width="5.0" stroke-linecap="round" stroke-linejoin="round"/>
<path d="M 592.5,583.8 L 592.7,579.8 L 593.3,552.8" stroke="#000000" fill="none" stroke-width="5.0" stroke-linecap="round" stroke-linejoin="round"/>
<path d="M 591.9,627.0 L 591.6,609.7" stroke="#000000" fill="none" stroke-width="5.0" stroke-linecap="round" stroke-linejoin="round"/>
<path d="M 591.6,609.7 L 592.5,583.8" stroke="#000000" fill="none" stroke-width="5.0" stroke-linecap="round" stroke-linejoin="round"/>
<path d="M 592.6,705.9 L 592.5,677.3" stroke="#000000" fill="none" stroke-width="5.0" stroke-linecap="round" stroke-linejoin="round"/>
<path d="M 593.4,768.1 L 593.3,750.6 L 593.3,745.8" stroke="#000000" fill="none" stroke-width="5.0" stroke-linecap="round" stroke-linejoin="round"/>
<path d="M 589.5,940.7 L 589.8,923.2" stroke="#000000" fill="none" stroke-width="5.0" stroke-linecap="round" stroke-linejoin="round"/>
<path d="M 587.3,1036.7 L 587.9,1010.3" stroke="#000000" fill="none" stroke-width="5.0" stroke-linecap="round" stroke-linejoin="round"/>
<path d="M 585.6,1110.0 L 587.3,1036.7" stroke="#000000" fill="none" stroke-width="5.0" stroke-linecap="round" stroke-linejoin="round"/>
<path d="M 593.6,426.8 L 593.5,403.5" stroke="#000000" fill="none" stroke-width="5.0" stroke-linecap="round" stroke-linejoin="round"/>
<path d="M 593.6,452.5 L 593.7,447.3 L 593.6,434.9 L 593.6,432.9 L 593.6,426.8" stroke="#000000" fill="none" stroke-width="5.0" stroke-linecap="round" stroke-linejoin="round"/>
<path d="M 593.5,471.6 L 593.6,452.5" stroke="#000000" fill="none" stroke-width="5.0" stroke-linecap="round" stroke-linejoin="round"/>
<path d="M 593.9,481.3 L 593.5,471.6" stroke="#000000" fill="none" stroke-width="5.0" stroke-linecap="round" stroke-linejoin="round"/>
<path d="M 593.4,524.2 L 593.5,511.9 L 593.5,502.7 L 593.4,499.3 L 593.9,481.3" stroke="#000000" fill="none" stroke-width="5.0" stroke-linecap="round" stroke-linejoin="round"/>
<path d="M 593.4,540.5 L 593.3,535.3 L 593.4,524.2" stroke="#000000" fill="none" stroke-width="5.0" stroke-linecap="round" stroke-linejoin="round"/>
<path d="M 593.3,552.8 L 593.5,545.4 L 593.4,540.5" stroke="#000000" fill="none" stroke-width="5.0" stroke-linecap="round" stroke-linejoin="round"/>
<path d="M 597.4,129.8 L 597.9,123.9 L 598.9,113.3 L 600.2,102.7" stroke="#000000" fill="none" stroke-width="5.0" stroke-linecap="round" stroke-linejoin="round"/>
<path d="M 1009.3,215.5 L 1009.3,920.3 C 1009.3,957.7 941.3,957.7 941.3,920.3 L 941.3,215.5 C 941.3,178.1 873.3,178.1 873.3,215.5 L 873.3,920.3 C 873.3,957.7 805.2,957.7 805.2,920.3 L 805.2,215.5 C 805.2,178.1 737.2,178.1 737.2,215.5 L 737.2,920.3 C 737.2,957.7 669.2,957.7 669.2,920.3 L 669.2,215.5 C 669.2,178.1 601.1,178.1 601.1,215.5 L 601.1,920.3 C 601.1,957.7 533.1,957.7 533.1,920.3 L 533.1,215.5 C 533.1,178.1 465.1,178.1 465.1,215.5 L 465.1,897.8 C 465.1,920.3 465.1,920.3 487.5,920.3 L 1009.3,920.3 C 1064.7,920.3 1064.7,819.6 1009.3,819.6 L 465.1,819.6 C 409.7,819.6 409.7,718.9 465.1,718.9 L 1009.3,718.9 C 1064.7,718.9 1064.7,618.2 1009.3,618.2 L 465.1,618.2 C 409.7,618.2 409.7,517.6 465.1,517.6 L 1009.3,517.6 C 1064.7,517.6 1064.7,416.9 1009.3,416.9 L 465.1,416.9 C 409.7,416.9 409.7,316.2 465.1,316.2 L 1009.3,316.2 C 1064.7,316.2 1064.7,215.5 1009.3,215.5 L 465.1,215.5" stroke="#fdb913" fill="none" stroke-width="4.0" stroke-linecap="round" stroke-linejoin="round" stroke-opacity="0.9"/>
<path d="M 1009.3,506.4 L 999.4,488.4 L 1019.2,488.4 Z" fill="#fdb913" stroke="#000000" stroke-width="1.5"/>
<path d="M 941.3,629.4 L 951.2,647.4 L 931.4,647.4 Z" fill="#fdb913" stroke="#000000" stroke-width="1.5"/>
<path d="M 873.3,506.4 L 863.4,488.4 L 883.2,488.4 Z" fill="#fdb913" stroke="#000000" stroke-width="1.5"/>
<path d="M 805.2,629.4 L 815.1,647.4 L 795.3,647.4 Z" fill="#fdb913" stroke="#000000" stroke-width="1.5"/>
<path d="M 737.2,506.4 L 727.3,488.4 L 747.1,488.4 Z" fill="#fdb913" stroke="#000000" stroke-width="1.5"/>
<path d="M 669.2,629.4 L 679.1,647.4 L 659.3,647.4 Z" fill="#fdb913" stroke="#000000" stroke-width="1.5"/>
<path d="M 601.1,506.4 L 591.2,488.4 L 611.0,488.4 Z" fill="#fdb913" stroke="#000000" stroke-width="1.5"/>
<path d="M 533.1,629.4 L 543.0,647.4 L 523.2,647.4 Z" fill="#fdb913" stroke="#000000" stroke-width="1.5"/>
<path d="M 465.1,497.4 L 455.2,479.4 L 475.0,479.4 Z" fill="#fdb913" stroke="#000000" stroke-width="1.5"/>
<path d="M 705.3,920.3 L 687.3,930.2 L 687.3,910.4 Z" fill="#fdb913" stroke="#000000" stroke-width="1.5"/>
<path d="M 782.6,819.6 L 800.6,809.7 L 800.6,829.5 Z" fill="#fdb913" stroke="#000000" stroke-width="1.5"/>
<path d="M 691.8,718.9 L 673.8,728.8 L 673.8,709.0 Z" fill="#fdb913" stroke="#000000" stroke-width="1.5"/>
<path d="M 782.6,618.2 L 800.6,608.3 L 800.6,628.1 Z" fill="#fdb913" stroke="#000000" stroke-width="1.5"/>
<path d="M 691.8,517.6 L 673.8,527.5 L 673.8,507.7 Z" fill="#fdb913" stroke="#000000" stroke-width="1.5"/>
<path d="M 782.6,416.9 L 800.6,407.0 L 800.6,426.8 Z" fill="#fdb913" stroke="#000000" stroke-width="1.5"/>
<path d="M 691.8,316.2 L 673.8,326.1 L 673.8,306.3 Z" fill="#fdb913" stroke="#000000" stroke-width="1.5"/>
<path d="M 782.6,215.5 L 800.6,205.6 L 800.6,225.4 Z" fill="#fdb913" stroke="#000000" stroke-width="1.5"/>
<circle cx="1009.3177827034569" cy="215.52631578936217" r="13" fill="#fdb913" stroke="#000000" stroke-width="2.5"/>
<text x="1029.317782703457" y="223.52631578936217" font-family="Roboto, 'Helvetica Neue', Arial, sans-serif" font-size="26" fill="#000000" text-anchor="start" font-weight="bold" font-style="normal">start</text>
<circle cx="465.0915476743497" cy="215.52631578936217" r="13" fill="#000000" stroke="#000000" stroke-width="2.5"/>
<text x="445.0915476743497" y="223.52631578936217" font-family="Roboto, 'Helvetica Neue', Arial, sans-serif" font-size="26" fill="#000000" text-anchor="end" font-weight="bold" font-style="normal">end</text>
<text x="599.5980659584185" y="1096.0" font-family="'Roboto Mono', 'Menlo', 'Consolas', monospace" font-size="22" fill="#000000" text-anchor="start" font-weight="normal" font-style="normal">Hwy 1 / Main St</text>
<path d="M 90,150 L 90,106 L 81,118 M 90,106 L 99,118" stroke="#000000" fill="none" stroke-width="2.2" stroke-linecap="round" stroke-linejoin="round"/>
<text x="106" y="128" font-family="Roboto, 'Helvetica Neue', Arial, sans-serif" font-size="22" fill="#000000" text-anchor="start" font-weight="bold" font-style="normal">N</text>
<text x="800.0" y="50" font-family="Roboto, 'Helvetica Neue', Arial, sans-serif" font-size="30" fill="#000000" text-anchor="middle" font-weight="normal" font-style="normal">Fort Bragg, CA — N-S sweeps westward, then E-W sweeps northward</text>
<text x="800.0" y="1170" font-family="Roboto, 'Helvetica Neue', Arial, sans-serif" font-size="20" fill="#555555" text-anchor="middle" font-weight="normal" font-style="italic">street data: © OpenStreetMap contributors (ODbL) · route is illustrative, not literal</text>
</svg>
