<svg xmlns="http://www.w3.org/2000/svg" viewBox="0 0 1400 800" preserveAspectRatio="xMidYMid meet">
<rect x="0" y="0" width="1400" height="800" fill="#ffffff"/>
<defs>
  <marker id="arrow" viewBox="0 0 10 10" refX="9" refY="5" markerWidth="7" markerHeight="7" orient="auto-start-reverse">
    <path d="M0,0 L10,5 L0,10 Z" fill="context-stroke"/>
  </marker>
  <marker id="arrow-gold" viewBox="0 0 10 10" refX="9" refY="5" markerWidth="7" markerHeight="7" orient="auto-start-reverse">
    <path d="M0,0 L10,5 L0,10 Z" fill="#fdb913"/>
  </marker>
</defs>
<rect x="64" y="104" width="752" height="552" fill="#fdb913" stroke="#000000" stroke-width="3" rx="0"/>
<rect x="80" y="120" width="720" height="520" fill="#ffffff" stroke="#000000" stroke-width="2" rx="0"/>
<text x="440.0" y="410.0" font-family="'Roboto Mono', 'Menlo', 'Consolas', monospace" font-size="88" fill="#000000" text-anchor="middle" font-weight="bold" font-style="normal">n! = n · (n − 1)!</text>
<circle cx="1040" cy="220" r="60" fill="#fce3a4" stroke="#000000" stroke-width="2.5"/>
<circle cx="1018" cy="214" r="4" fill="#000000" stroke="#000000" stroke-width="1"/>
<circle cx="1062" cy="214" r="4" fill="#000000" stroke="#000000" stroke-width="1"/>
<path d="M1022,244 q18,12 36,0" stroke="#000000" fill="none" stroke-width="2" stroke-linecap="round" stroke-linejoin="round"/>
<path d="M980,290 Q1040,280 1100,290 L1130,540 L950,540 Z" stroke="#000000" fill="#fce3a4" stroke-width="2.5" stroke-linecap="round" stroke-linejoin="round"/>
<line x1="980" y1="320" x2="820" y2="290" stroke="#000000" stroke-width="4"/>
<circle cx="810" cy="285" r="10" fill="#fce3a4" stroke="#000000" stroke-width="2"/>
<line x1="1110" y1="320" x2="1150" y2="480" stroke="#000000" stroke-width="4"/>
<line x1="1000" y1="540" x2="980" y2="700" stroke="#000000" stroke-width="4"/>
<line x1="1080" y1="540" x2="1100" y2="700" stroke="#000000" stroke-width="4"/>
<ellipse cx="980" cy="708" rx="24" ry="8" fill="#000000" stroke="#000000" stroke-width="1"/>
<ellipse cx="1100" cy="708" rx="24" ry="8" fill="#000000" stroke="#000000" stroke-width="1"/>
<circle cx="1120" cy="140" r="14" fill="#ffffff" stroke="#000000" stroke-width="2"/>
<circle cx="1150" cy="90" r="22" fill="#ffffff" stroke="#000000" stroke-width="2"/>
<circle cx="1200" cy="20" r="36" fill="#ffffff" stroke="#000000" stroke-width="2"/>
<text x="1200" y="28" font-family="'Roboto Mono', 'Menlo', 'Consolas', monospace" font-size="44" fill="#000000" text-anchor="middle" font-weight="bold" font-style="normal">?</text>
</svg>
