<svg xmlns="http://www.w3.org/2000/svg" viewBox="0 0 1400 800" preserveAspectRatio="xMidYMid meet">
<rect x="0" y="0" width="1400" height="800" fill="#ffffff"/>
<defs>
  <marker id="arrow" viewBox="0 0 10 10" refX="9" refY="5" markerWidth="7" markerHeight="7" orient="auto-start-reverse">
    <path d="M0,0 L10,5 L0,10 Z" fill="context-stroke"/>
  </marker>
  <marker id="arrow-gold" viewBox="0 0 10 10" refX="9" refY="5" markerWidth="7" markerHeight="7" orient="auto-start-reverse">
    <path d="M0,0 L10,5 L0,10 Z" fill="#fdb913"/>
  </marker>
</defs>
<rect x="400.0" y="100.0" width="200" height="200" fill="#ffffff" stroke="#000000" stroke-width="4" rx="0"/>
<rect x="600.0" y="100.0" width="200" height="200" fill="#fce3a4" stroke="#000000" stroke-width="4" rx="0"/>
<rect x="800.0" y="100.0" width="200" height="200" fill="#ffffff" stroke="#000000" stroke-width="4" rx="0"/>
<rect x="400.0" y="300.0" width="200" height="200" fill="#fce3a4" stroke="#000000" stroke-width="4" rx="0"/>
<rect x="600.0" y="300.0" width="200" height="200" fill="#fdb913" stroke="#000000" stroke-width="4" rx="0"/>
<rect x="800.0" y="300.0" width="200" height="200" fill="#ffffff" stroke="#000000" stroke-width="4" rx="0"/>
<rect x="400.0" y="500.0" width="200" height="200" fill="#ffffff" stroke="#000000" stroke-width="4" rx="0"/>
<rect x="600.0" y="500.0" width="200" height="200" fill="#ffffff" stroke="#000000" stroke-width="4" rx="0"/>
<rect x="800.0" y="500.0" width="200" height="200" fill="#ffffff" stroke="#000000" stroke-width="4" rx="0"/>
<text x="500.0" y="414.0" font-family="'Roboto Mono', 'Menlo', 'Consolas', monospace" font-size="42" fill="#000000" text-anchor="middle" font-weight="normal" font-style="normal">(x−1, y)</text>
<text x="700.0" y="214.0" font-family="'Roboto Mono', 'Menlo', 'Consolas', monospace" font-size="42" fill="#000000" text-anchor="middle" font-weight="normal" font-style="normal">(x, y−1)</text>
<text x="700.0" y="414.0" font-family="'Roboto Mono', 'Menlo', 'Consolas', monospace" font-size="42" fill="#000000" text-anchor="middle" font-weight="normal" font-style="normal">(x, y)</text>
<line x1="600.0" y1="400.0" x2="650.0" y2="400.0" stroke="#000000" stroke-width="6" marker-end="url(#arrow)"/>
<line x1="700.0" y1="300.0" x2="700.0" y2="350.0" stroke="#000000" stroke-width="6" marker-end="url(#arrow)"/>
</svg>
