<svg xmlns="http://www.w3.org/2000/svg" viewBox="0 0 1600 620" preserveAspectRatio="xMidYMid meet">
<defs><marker id="arrow-gold" viewBox="0 0 10 10" refX="9" refY="5" markerWidth="6" markerHeight="6" orient="auto-start-reverse"><path d="M0,0 L10,5 L0,10 Z" fill="#fdb913"/></marker><pattern id="thatch" patternUnits="userSpaceOnUse" width="14" height="14" patternTransform="rotate(45)"><rect width="14" height="14" fill="#ffffff"/><line x1="0" y1="0" x2="0" y2="14" stroke="#9a9a9a" stroke-width="2"/></pattern></defs>
<rect width="1600" height="620" fill="#ffffff"/>
<rect x="0" y="0" width="1600" height="80" fill="url(#thatch)"/>
<rect x="0" y="80" width="158.0" height="330" fill="url(#thatch)"/>
<rect x="158.0" y="80" width="64" height="110" fill="#fce3a4" stroke="#000000" stroke-width="2" rx="0"/>
<text x="190.0" y="142.33333333333334" font-family="'Roboto Mono', 'Menlo', 'Consolas', monospace" font-size="22" fill="#000000" text-anchor="middle" font-weight="normal" font-style="normal">1</text>
<rect x="222.0" y="80" width="64" height="110" fill="#ffffff" stroke="#000000" stroke-width="2" rx="0"/>
<rect x="286.0" y="80" width="64" height="110" fill="#ffffff" stroke="#000000" stroke-width="2" rx="0"/>
<rect x="350.0" y="80" width="64" height="110" fill="#ffffff" stroke="#000000" stroke-width="2" rx="0"/>
<rect x="414.0" y="80" width="64" height="110" fill="#ffffff" stroke="#000000" stroke-width="2" rx="0"/>
<rect x="478.0" y="80" width="64" height="110" fill="#ffffff" stroke="#000000" stroke-width="2" rx="0"/>
<rect x="542.0" y="80" width="64" height="110" fill="#ffffff" stroke="#000000" stroke-width="2" rx="0"/>
<rect x="606.0" y="80" width="64" height="110" fill="#ffffff" stroke="#000000" stroke-width="2" rx="0"/>
<rect x="670.0" y="80" width="64" height="110" fill="#ffffff" stroke="#000000" stroke-width="2" rx="0"/>
<rect x="734.0" y="80" width="64" height="110" fill="#ffffff" stroke="#000000" stroke-width="2" rx="0"/>
<rect x="798.0" y="80" width="64" height="110" fill="#ffffff" stroke="#000000" stroke-width="2" rx="0"/>
<rect x="862.0" y="80" width="64" height="110" fill="#ffffff" stroke="#000000" stroke-width="2" rx="0"/>
<rect x="926.0" y="80" width="64" height="110" fill="#ffffff" stroke="#000000" stroke-width="2" rx="0"/>
<rect x="990.0" y="80" width="64" height="110" fill="#ffffff" stroke="#000000" stroke-width="2" rx="0"/>
<rect x="1054.0" y="80" width="64" height="110" fill="#ffffff" stroke="#000000" stroke-width="2" rx="0"/>
<rect x="1118.0" y="80" width="64" height="110" fill="#ffffff" stroke="#000000" stroke-width="2" rx="0"/>
<rect x="1182.0" y="80" width="64" height="110" fill="#ffffff" stroke="#000000" stroke-width="2" rx="0"/>
<rect x="1246.0" y="80" width="64" height="110" fill="#ffffff" stroke="#000000" stroke-width="2" rx="0"/>
<rect x="1310.0" y="80" width="64" height="110" fill="#ffffff" stroke="#000000" stroke-width="2" rx="0"/>
<rect x="1374.0" y="80" width="64" height="110" fill="#ffffff" stroke="#000000" stroke-width="2" rx="0"/>
<rect x="1438.0" y="80" width="64" height="110" fill="#ffffff" stroke="#000000" stroke-width="2" rx="0"/>
<rect x="158.0" y="190" width="64" height="110" fill="#fce3a4" stroke="#000000" stroke-width="2" rx="0"/>
<text x="190.0" y="252.33333333333334" font-family="'Roboto Mono', 'Menlo', 'Consolas', monospace" font-size="22" fill="#000000" text-anchor="middle" font-weight="normal" font-style="normal">1</text>
<rect x="222.0" y="190" width="64" height="110" fill="#ffffff" stroke="#000000" stroke-width="2" rx="0"/>
<rect x="286.0" y="190" width="64" height="110" fill="#ffffff" stroke="#000000" stroke-width="2" rx="0"/>
<rect x="350.0" y="190" width="64" height="110" fill="#ffffff" stroke="#000000" stroke-width="2" rx="0"/>
<rect x="414.0" y="190" width="64" height="110" fill="#ffffff" stroke="#000000" stroke-width="2" rx="0"/>
<rect x="478.0" y="190" width="64" height="110" fill="#ffffff" stroke="#000000" stroke-width="2" rx="0"/>
<rect x="542.0" y="190" width="64" height="110" fill="#ffffff" stroke="#000000" stroke-width="2" rx="0"/>
<rect x="606.0" y="190" width="64" height="110" fill="#ffffff" stroke="#000000" stroke-width="2" rx="0"/>
<rect x="670.0" y="190" width="64" height="110" fill="#ffffff" stroke="#000000" stroke-width="2" rx="0"/>
<rect x="734.0" y="190" width="64" height="110" fill="#ffffff" stroke="#000000" stroke-width="2" rx="0"/>
<rect x="798.0" y="190" width="64" height="110" fill="#ffffff" stroke="#000000" stroke-width="2" rx="0"/>
<rect x="862.0" y="190" width="64" height="110" fill="#ffffff" stroke="#000000" stroke-width="2" rx="0"/>
<rect x="926.0" y="190" width="64" height="110" fill="#ffffff" stroke="#000000" stroke-width="2" rx="0"/>
<rect x="990.0" y="190" width="64" height="110" fill="#ffffff" stroke="#000000" stroke-width="2" rx="0"/>
<rect x="1054.0" y="190" width="64" height="110" fill="#ffffff" stroke="#000000" stroke-width="2" rx="0"/>
<rect x="1118.0" y="190" width="64" height="110" fill="#ffffff" stroke="#000000" stroke-width="2" rx="0"/>
<rect x="1182.0" y="190" width="64" height="110" fill="#ffffff" stroke="#000000" stroke-width="2" rx="0"/>
<rect x="1246.0" y="190" width="64" height="110" fill="#ffffff" stroke="#000000" stroke-width="2" rx="0"/>
<rect x="1310.0" y="190" width="64" height="110" fill="#ffffff" stroke="#000000" stroke-width="2" rx="0"/>
<rect x="1374.0" y="190" width="64" height="110" fill="#ffffff" stroke="#000000" stroke-width="2" rx="0"/>
<rect x="1438.0" y="190" width="64" height="110" fill="#ffffff" stroke="#000000" stroke-width="2" rx="0"/>
<rect x="158.0" y="300" width="64" height="110" fill="#fce3a4" stroke="#000000" stroke-width="2" rx="0"/>
<text x="190.0" y="362.3333333333333" font-family="'Roboto Mono', 'Menlo', 'Consolas', monospace" font-size="22" fill="#000000" text-anchor="middle" font-weight="normal" font-style="normal">1</text>
<rect x="222.0" y="300" width="64" height="110" fill="#ffffff" stroke="#000000" stroke-width="2" rx="0"/>
<rect x="286.0" y="300" width="64" height="110" fill="#ffffff" stroke="#000000" stroke-width="2" rx="0"/>
<rect x="350.0" y="300" width="64" height="110" fill="#ffffff" stroke="#000000" stroke-width="2" rx="0"/>
<rect x="414.0" y="300" width="64" height="110" fill="#ffffff" stroke="#000000" stroke-width="2" rx="0"/>
<rect x="478.0" y="300" width="64" height="110" fill="#ffffff" stroke="#000000" stroke-width="2" rx="0"/>
<rect x="542.0" y="300" width="64" height="110" fill="#ffffff" stroke="#000000" stroke-width="2" rx="0"/>
<rect x="606.0" y="300" width="64" height="110" fill="#ffffff" stroke="#000000" stroke-width="2" rx="0"/>
<rect x="670.0" y="300" width="64" height="110" fill="#ffffff" stroke="#000000" stroke-width="2" rx="0"/>
<rect x="734.0" y="300" width="64" height="110" fill="#ffffff" stroke="#000000" stroke-width="2" rx="0"/>
<rect x="798.0" y="300" width="64" height="110" fill="#ffffff" stroke="#000000" stroke-width="2" rx="0"/>
<rect x="862.0" y="300" width="64" height="110" fill="#ffffff" stroke="#000000" stroke-width="2" rx="0"/>
<rect x="926.0" y="300" width="64" height="110" fill="#ffffff" stroke="#000000" stroke-width="2" rx="0"/>
<rect x="990.0" y="300" width="64" height="110" fill="#ffffff" stroke="#000000" stroke-width="2" rx="0"/>
<rect x="1054.0" y="300" width="64" height="110" fill="#ffffff" stroke="#000000" stroke-width="2" rx="0"/>
<rect x="1118.0" y="300" width="64" height="110" fill="#ffffff" stroke="#000000" stroke-width="2" rx="0"/>
<rect x="1182.0" y="300" width="64" height="110" fill="#ffffff" stroke="#000000" stroke-width="2" rx="0"/>
<rect x="1246.0" y="300" width="64" height="110" fill="#ffffff" stroke="#000000" stroke-width="2" rx="0"/>
<rect x="1310.0" y="300" width="64" height="110" fill="#ffffff" stroke="#000000" stroke-width="2" rx="0"/>
<rect x="1374.0" y="300" width="64" height="110" fill="#ffffff" stroke="#000000" stroke-width="2" rx="0"/>
<rect x="1438.0" y="300" width="64" height="110" fill="#ffffff" stroke="#000000" stroke-width="2" rx="0"/>
<text x="190.0" y="62" font-family="'Roboto Mono', 'Menlo', 'Consolas', monospace" font-size="20" fill="#000000" text-anchor="middle" font-weight="normal" font-style="normal">0</text>
<text x="254.0" y="62" font-family="'Roboto Mono', 'Menlo', 'Consolas', monospace" font-size="20" fill="#000000" text-anchor="middle" font-weight="normal" font-style="normal">1</text>
<text x="318.0" y="62" font-family="'Roboto Mono', 'Menlo', 'Consolas', monospace" font-size="20" fill="#000000" text-anchor="middle" font-weight="normal" font-style="normal">2</text>
<text x="382.0" y="62" font-family="'Roboto Mono', 'Menlo', 'Consolas', monospace" font-size="20" fill="#000000" text-anchor="middle" font-weight="normal" font-style="normal">3</text>
<text x="446.0" y="62" font-family="'Roboto Mono', 'Menlo', 'Consolas', monospace" font-size="20" fill="#000000" text-anchor="middle" font-weight="normal" font-style="normal">4</text>
<text x="510.0" y="62" font-family="'Roboto Mono', 'Menlo', 'Consolas', monospace" font-size="20" fill="#000000" text-anchor="middle" font-weight="normal" font-style="normal">5</text>
<text x="574.0" y="62" font-family="'Roboto Mono', 'Menlo', 'Consolas', monospace" font-size="20" fill="#000000" text-anchor="middle" font-weight="normal" font-style="normal">6</text>
<text x="638.0" y="62" font-family="'Roboto Mono', 'Menlo', 'Consolas', monospace" font-size="20" fill="#000000" text-anchor="middle" font-weight="normal" font-style="normal">7</text>
<text x="702.0" y="62" font-family="'Roboto Mono', 'Menlo', 'Consolas', monospace" font-size="20" fill="#000000" text-anchor="middle" font-weight="normal" font-style="normal">8</text>
<text x="766.0" y="62" font-family="'Roboto Mono', 'Menlo', 'Consolas', monospace" font-size="20" fill="#000000" text-anchor="middle" font-weight="normal" font-style="normal">9</text>
<text x="830.0" y="62" font-family="'Roboto Mono', 'Menlo', 'Consolas', monospace" font-size="20" fill="#000000" text-anchor="middle" font-weight="normal" font-style="normal">10</text>
<text x="894.0" y="62" font-family="'Roboto Mono', 'Menlo', 'Consolas', monospace" font-size="20" fill="#000000" text-anchor="middle" font-weight="normal" font-style="normal">11</text>
<text x="958.0" y="62" font-family="'Roboto Mono', 'Menlo', 'Consolas', monospace" font-size="20" fill="#000000" text-anchor="middle" font-weight="normal" font-style="normal">12</text>
<text x="1022.0" y="62" font-family="'Roboto Mono', 'Menlo', 'Consolas', monospace" font-size="20" fill="#000000" text-anchor="middle" font-weight="normal" font-style="normal">13</text>
<text x="1086.0" y="62" font-family="'Roboto Mono', 'Menlo', 'Consolas', monospace" font-size="20" fill="#000000" text-anchor="middle" font-weight="normal" font-style="normal">14</text>
<text x="1150.0" y="62" font-family="'Roboto Mono', 'Menlo', 'Consolas', monospace" font-size="20" fill="#000000" text-anchor="middle" font-weight="normal" font-style="normal">15</text>
<text x="1214.0" y="62" font-family="'Roboto Mono', 'Menlo', 'Consolas', monospace" font-size="20" fill="#000000" text-anchor="middle" font-weight="normal" font-style="normal">16</text>
<text x="1278.0" y="62" font-family="'Roboto Mono', 'Menlo', 'Consolas', monospace" font-size="20" fill="#000000" text-anchor="middle" font-weight="normal" font-style="normal">17</text>
<text x="1342.0" y="62" font-family="'Roboto Mono', 'Menlo', 'Consolas', monospace" font-size="20" fill="#000000" text-anchor="middle" font-weight="normal" font-style="normal">18</text>
<text x="1406.0" y="62" font-family="'Roboto Mono', 'Menlo', 'Consolas', monospace" font-size="20" fill="#000000" text-anchor="middle" font-weight="normal" font-style="normal">19</text>
<text x="1470.0" y="62" font-family="'Roboto Mono', 'Menlo', 'Consolas', monospace" font-size="20" fill="#000000" text-anchor="middle" font-weight="normal" font-style="normal">20</text>
<text x="136.0" y="146.33333333333334" font-family="Roboto, 'Helvetica Neue', Arial, sans-serif" font-size="34" fill="#000000" text-anchor="end" font-weight="normal" font-style="normal">1¢</text>
<text x="136.0" y="256.3333333333333" font-family="Roboto, 'Helvetica Neue', Arial, sans-serif" font-size="34" fill="#000000" text-anchor="end" font-weight="normal" font-style="normal">2¢</text>
<text x="136.0" y="366.3333333333333" font-family="Roboto, 'Helvetica Neue', Arial, sans-serif" font-size="34" fill="#000000" text-anchor="end" font-weight="normal" font-style="normal">5¢</text>
<g opacity="0">
<polyline points="190.0,135.0 190.0,245.0 190.0,355.0 1470.0,355.0" fill="none" stroke="#fdb913" stroke-width="7" stroke-linejoin="round" stroke-linecap="round" marker-end="url(#arrow-gold)"/>
<text x="800.0" y="470" font-family="'Roboto Mono', monospace" font-size="40" fill="#000000" text-anchor="middle">4×5¢  =  20¢</text>
<text x="800.0" y="526" font-family="'Roboto Mono', monospace" font-size="30" fill="#fdb913" text-anchor="middle" font-weight="bold">path 1 / 29</text>
<animate attributeName="opacity" calcMode="discrete" values="1;0" keyTimes="0;0.03448" dur="22s" repeatCount="indefinite"/>
</g>
<g opacity="0">
<polyline points="190.0,135.0 510.0,135.0 510.0,245.0 510.0,355.0 1470.0,355.0" fill="none" stroke="#fdb913" stroke-width="7" stroke-linejoin="round" stroke-linecap="round" marker-end="url(#arrow-gold)"/>
<text x="800.0" y="470" font-family="'Roboto Mono', monospace" font-size="40" fill="#000000" text-anchor="middle">5×1¢  +  3×5¢  =  20¢</text>
<text x="800.0" y="526" font-family="'Roboto Mono', monospace" font-size="30" fill="#fdb913" text-anchor="middle" font-weight="bold">path 2 / 29</text>
<animate attributeName="opacity" calcMode="discrete" values="0;1;0" keyTimes="0;0.03448;0.06897" dur="22s" repeatCount="indefinite"/>
</g>
<g opacity="0">
<polyline points="190.0,135.0 382.0,135.0 382.0,245.0 510.0,245.0 510.0,355.0 1470.0,355.0" fill="none" stroke="#fdb913" stroke-width="7" stroke-linejoin="round" stroke-linecap="round" marker-end="url(#arrow-gold)"/>
<text x="800.0" y="470" font-family="'Roboto Mono', monospace" font-size="40" fill="#000000" text-anchor="middle">3×1¢  +  1×2¢  +  3×5¢  =  20¢</text>
<text x="800.0" y="526" font-family="'Roboto Mono', monospace" font-size="30" fill="#fdb913" text-anchor="middle" font-weight="bold">path 3 / 29</text>
<animate attributeName="opacity" calcMode="discrete" values="0;1;0" keyTimes="0;0.06897;0.10345" dur="22s" repeatCount="indefinite"/>
</g>
<g opacity="0">
<polyline points="190.0,135.0 254.0,135.0 254.0,245.0 510.0,245.0 510.0,355.0 1470.0,355.0" fill="none" stroke="#fdb913" stroke-width="7" stroke-linejoin="round" stroke-linecap="round" marker-end="url(#arrow-gold)"/>
<text x="800.0" y="470" font-family="'Roboto Mono', monospace" font-size="40" fill="#000000" text-anchor="middle">1×1¢  +  2×2¢  +  3×5¢  =  20¢</text>
<text x="800.0" y="526" font-family="'Roboto Mono', monospace" font-size="30" fill="#fdb913" text-anchor="middle" font-weight="bold">path 4 / 29</text>
<animate attributeName="opacity" calcMode="discrete" values="0;1;0" keyTimes="0;0.10345;0.13793" dur="22s" repeatCount="indefinite"/>
</g>
<g opacity="0">
<polyline points="190.0,135.0 830.0,135.0 830.0,245.0 830.0,355.0 1470.0,355.0" fill="none" stroke="#fdb913" stroke-width="7" stroke-linejoin="round" stroke-linecap="round" marker-end="url(#arrow-gold)"/>
<text x="800.0" y="470" font-family="'Roboto Mono', monospace" font-size="40" fill="#000000" text-anchor="middle">10×1¢  +  2×5¢  =  20¢</text>
<text x="800.0" y="526" font-family="'Roboto Mono', monospace" font-size="30" fill="#fdb913" text-anchor="middle" font-weight="bold">path 5 / 29</text>
<animate attributeName="opacity" calcMode="discrete" values="0;1;0" keyTimes="0;0.13793;0.17241" dur="22s" repeatCount="indefinite"/>
</g>
<g opacity="0">
<polyline points="190.0,135.0 702.0,135.0 702.0,245.0 830.0,245.0 830.0,355.0 1470.0,355.0" fill="none" stroke="#fdb913" stroke-width="7" stroke-linejoin="round" stroke-linecap="round" marker-end="url(#arrow-gold)"/>
<text x="800.0" y="470" font-family="'Roboto Mono', monospace" font-size="40" fill="#000000" text-anchor="middle">8×1¢  +  1×2¢  +  2×5¢  =  20¢</text>
<text x="800.0" y="526" font-family="'Roboto Mono', monospace" font-size="30" fill="#fdb913" text-anchor="middle" font-weight="bold">path 6 / 29</text>
<animate attributeName="opacity" calcMode="discrete" values="0;1;0" keyTimes="0;0.17241;0.20690" dur="22s" repeatCount="indefinite"/>
</g>
<g opacity="0">
<polyline points="190.0,135.0 574.0,135.0 574.0,245.0 830.0,245.0 830.0,355.0 1470.0,355.0" fill="none" stroke="#fdb913" stroke-width="7" stroke-linejoin="round" stroke-linecap="round" marker-end="url(#arrow-gold)"/>
<text x="800.0" y="470" font-family="'Roboto Mono', monospace" font-size="40" fill="#000000" text-anchor="middle">6×1¢  +  2×2¢  +  2×5¢  =  20¢</text>
<text x="800.0" y="526" font-family="'Roboto Mono', monospace" font-size="30" fill="#fdb913" text-anchor="middle" font-weight="bold">path 7 / 29</text>
<animate attributeName="opacity" calcMode="discrete" values="0;1;0" keyTimes="0;0.20690;0.24138" dur="22s" repeatCount="indefinite"/>
</g>
<g opacity="0">
<polyline points="190.0,135.0 446.0,135.0 446.0,245.0 830.0,245.0 830.0,355.0 1470.0,355.0" fill="none" stroke="#fdb913" stroke-width="7" stroke-linejoin="round" stroke-linecap="round" marker-end="url(#arrow-gold)"/>
<text x="800.0" y="470" font-family="'Roboto Mono', monospace" font-size="40" fill="#000000" text-anchor="middle">4×1¢  +  3×2¢  +  2×5¢  =  20¢</text>
<text x="800.0" y="526" font-family="'Roboto Mono', monospace" font-size="30" fill="#fdb913" text-anchor="middle" font-weight="bold">path 8 / 29</text>
<animate attributeName="opacity" calcMode="discrete" values="0;1;0" keyTimes="0;0.24138;0.27586" dur="22s" repeatCount="indefinite"/>
</g>
<g opacity="0">
<polyline points="190.0,135.0 318.0,135.0 318.0,245.0 830.0,245.0 830.0,355.0 1470.0,355.0" fill="none" stroke="#fdb913" stroke-width="7" stroke-linejoin="round" stroke-linecap="round" marker-end="url(#arrow-gold)"/>
<text x="800.0" y="470" font-family="'Roboto Mono', monospace" font-size="40" fill="#000000" text-anchor="middle">2×1¢  +  4×2¢  +  2×5¢  =  20¢</text>
<text x="800.0" y="526" font-family="'Roboto Mono', monospace" font-size="30" fill="#fdb913" text-anchor="middle" font-weight="bold">path 9 / 29</text>
<animate attributeName="opacity" calcMode="discrete" values="0;1;0" keyTimes="0;0.27586;0.31034" dur="22s" repeatCount="indefinite"/>
</g>
<g opacity="0">
<polyline points="190.0,135.0 190.0,245.0 830.0,245.0 830.0,355.0 1470.0,355.0" fill="none" stroke="#fdb913" stroke-width="7" stroke-linejoin="round" stroke-linecap="round" marker-end="url(#arrow-gold)"/>
<text x="800.0" y="470" font-family="'Roboto Mono', monospace" font-size="40" fill="#000000" text-anchor="middle">5×2¢  +  2×5¢  =  20¢</text>
<text x="800.0" y="526" font-family="'Roboto Mono', monospace" font-size="30" fill="#fdb913" text-anchor="middle" font-weight="bold">path 10 / 29</text>
<animate attributeName="opacity" calcMode="discrete" values="0;1;0" keyTimes="0;0.31034;0.34483" dur="22s" repeatCount="indefinite"/>
</g>
<g opacity="0">
<polyline points="190.0,135.0 1150.0,135.0 1150.0,245.0 1150.0,355.0 1470.0,355.0" fill="none" stroke="#fdb913" stroke-width="7" stroke-linejoin="round" stroke-linecap="round" marker-end="url(#arrow-gold)"/>
<text x="800.0" y="470" font-family="'Roboto Mono', monospace" font-size="40" fill="#000000" text-anchor="middle">15×1¢  +  1×5¢  =  20¢</text>
<text x="800.0" y="526" font-family="'Roboto Mono', monospace" font-size="30" fill="#fdb913" text-anchor="middle" font-weight="bold">path 11 / 29</text>
<animate attributeName="opacity" calcMode="discrete" values="0;1;0" keyTimes="0;0.34483;0.37931" dur="22s" repeatCount="indefinite"/>
</g>
<g opacity="0">
<polyline points="190.0,135.0 1022.0,135.0 1022.0,245.0 1150.0,245.0 1150.0,355.0 1470.0,355.0" fill="none" stroke="#fdb913" stroke-width="7" stroke-linejoin="round" stroke-linecap="round" marker-end="url(#arrow-gold)"/>
<text x="800.0" y="470" font-family="'Roboto Mono', monospace" font-size="40" fill="#000000" text-anchor="middle">13×1¢  +  1×2¢  +  1×5¢  =  20¢</text>
<text x="800.0" y="526" font-family="'Roboto Mono', monospace" font-size="30" fill="#fdb913" text-anchor="middle" font-weight="bold">path 12 / 29</text>
<animate attributeName="opacity" calcMode="discrete" values="0;1;0" keyTimes="0;0.37931;0.41379" dur="22s" repeatCount="indefinite"/>
</g>
<g opacity="0">
<polyline points="190.0,135.0 894.0,135.0 894.0,245.0 1150.0,245.0 1150.0,355.0 1470.0,355.0" fill="none" stroke="#fdb913" stroke-width="7" stroke-linejoin="round" stroke-linecap="round" marker-end="url(#arrow-gold)"/>
<text x="800.0" y="470" font-family="'Roboto Mono', monospace" font-size="40" fill="#000000" text-anchor="middle">11×1¢  +  2×2¢  +  1×5¢  =  20¢</text>
<text x="800.0" y="526" font-family="'Roboto Mono', monospace" font-size="30" fill="#fdb913" text-anchor="middle" font-weight="bold">path 13 / 29</text>
<animate attributeName="opacity" calcMode="discrete" values="0;1;0" keyTimes="0;0.41379;0.44828" dur="22s" repeatCount="indefinite"/>
</g>
<g opacity="0">
<polyline points="190.0,135.0 766.0,135.0 766.0,245.0 1150.0,245.0 1150.0,355.0 1470.0,355.0" fill="none" stroke="#fdb913" stroke-width="7" stroke-linejoin="round" stroke-linecap="round" marker-end="url(#arrow-gold)"/>
<text x="800.0" y="470" font-family="'Roboto Mono', monospace" font-size="40" fill="#000000" text-anchor="middle">9×1¢  +  3×2¢  +  1×5¢  =  20¢</text>
<text x="800.0" y="526" font-family="'Roboto Mono', monospace" font-size="30" fill="#fdb913" text-anchor="middle" font-weight="bold">path 14 / 29</text>
<animate attributeName="opacity" calcMode="discrete" values="0;1;0" keyTimes="0;0.44828;0.48276" dur="22s" repeatCount="indefinite"/>
</g>
<g opacity="0">
<polyline points="190.0,135.0 638.0,135.0 638.0,245.0 1150.0,245.0 1150.0,355.0 1470.0,355.0" fill="none" stroke="#fdb913" stroke-width="7" stroke-linejoin="round" stroke-linecap="round" marker-end="url(#arrow-gold)"/>
<text x="800.0" y="470" font-family="'Roboto Mono', monospace" font-size="40" fill="#000000" text-anchor="middle">7×1¢  +  4×2¢  +  1×5¢  =  20¢</text>
<text x="800.0" y="526" font-family="'Roboto Mono', monospace" font-size="30" fill="#fdb913" text-anchor="middle" font-weight="bold">path 15 / 29</text>
<animate attributeName="opacity" calcMode="discrete" values="0;1;0" keyTimes="0;0.48276;0.51724" dur="22s" repeatCount="indefinite"/>
</g>
<g opacity="0">
<polyline points="190.0,135.0 510.0,135.0 510.0,245.0 1150.0,245.0 1150.0,355.0 1470.0,355.0" fill="none" stroke="#fdb913" stroke-width="7" stroke-linejoin="round" stroke-linecap="round" marker-end="url(#arrow-gold)"/>
<text x="800.0" y="470" font-family="'Roboto Mono', monospace" font-size="40" fill="#000000" text-anchor="middle">5×1¢  +  5×2¢  +  1×5¢  =  20¢</text>
<text x="800.0" y="526" font-family="'Roboto Mono', monospace" font-size="30" fill="#fdb913" text-anchor="middle" font-weight="bold">path 16 / 29</text>
<animate attributeName="opacity" calcMode="discrete" values="0;1;0" keyTimes="0;0.51724;0.55172" dur="22s" repeatCount="indefinite"/>
</g>
<g opacity="0">
<polyline points="190.0,135.0 382.0,135.0 382.0,245.0 1150.0,245.0 1150.0,355.0 1470.0,355.0" fill="none" stroke="#fdb913" stroke-width="7" stroke-linejoin="round" stroke-linecap="round" marker-end="url(#arrow-gold)"/>
<text x="800.0" y="470" font-family="'Roboto Mono', monospace" font-size="40" fill="#000000" text-anchor="middle">3×1¢  +  6×2¢  +  1×5¢  =  20¢</text>
<text x="800.0" y="526" font-family="'Roboto Mono', monospace" font-size="30" fill="#fdb913" text-anchor="middle" font-weight="bold">path 17 / 29</text>
<animate attributeName="opacity" calcMode="discrete" values="0;1;0" keyTimes="0;0.55172;0.58621" dur="22s" repeatCount="indefinite"/>
</g>
<g opacity="0">
<polyline points="190.0,135.0 254.0,135.0 254.0,245.0 1150.0,245.0 1150.0,355.0 1470.0,355.0" fill="none" stroke="#fdb913" stroke-width="7" stroke-linejoin="round" stroke-linecap="round" marker-end="url(#arrow-gold)"/>
<text x="800.0" y="470" font-family="'Roboto Mono', monospace" font-size="40" fill="#000000" text-anchor="middle">1×1¢  +  7×2¢  +  1×5¢  =  20¢</text>
<text x="800.0" y="526" font-family="'Roboto Mono', monospace" font-size="30" fill="#fdb913" text-anchor="middle" font-weight="bold">path 18 / 29</text>
<animate attributeName="opacity" calcMode="discrete" values="0;1;0" keyTimes="0;0.58621;0.62069" dur="22s" repeatCount="indefinite"/>
</g>
<g opacity="0">
<polyline points="190.0,135.0 1470.0,135.0 1470.0,245.0 1470.0,355.0" fill="none" stroke="#fdb913" stroke-width="7" stroke-linejoin="round" stroke-linecap="round" marker-end="url(#arrow-gold)"/>
<text x="800.0" y="470" font-family="'Roboto Mono', monospace" font-size="40" fill="#000000" text-anchor="middle">20×1¢  =  20¢</text>
<text x="800.0" y="526" font-family="'Roboto Mono', monospace" font-size="30" fill="#fdb913" text-anchor="middle" font-weight="bold">path 19 / 29</text>
<animate attributeName="opacity" calcMode="discrete" values="0;1;0" keyTimes="0;0.62069;0.65517" dur="22s" repeatCount="indefinite"/>
</g>
<g opacity="0">
<polyline points="190.0,135.0 1342.0,135.0 1342.0,245.0 1470.0,245.0 1470.0,355.0" fill="none" stroke="#fdb913" stroke-width="7" stroke-linejoin="round" stroke-linecap="round" marker-end="url(#arrow-gold)"/>
<text x="800.0" y="470" font-family="'Roboto Mono', monospace" font-size="40" fill="#000000" text-anchor="middle">18×1¢  +  1×2¢  =  20¢</text>
<text x="800.0" y="526" font-family="'Roboto Mono', monospace" font-size="30" fill="#fdb913" text-anchor="middle" font-weight="bold">path 20 / 29</text>
<animate attributeName="opacity" calcMode="discrete" values="0;1;0" keyTimes="0;0.65517;0.68966" dur="22s" repeatCount="indefinite"/>
</g>
<g opacity="0">
<polyline points="190.0,135.0 1214.0,135.0 1214.0,245.0 1470.0,245.0 1470.0,355.0" fill="none" stroke="#fdb913" stroke-width="7" stroke-linejoin="round" stroke-linecap="round" marker-end="url(#arrow-gold)"/>
<text x="800.0" y="470" font-family="'Roboto Mono', monospace" font-size="40" fill="#000000" text-anchor="middle">16×1¢  +  2×2¢  =  20¢</text>
<text x="800.0" y="526" font-family="'Roboto Mono', monospace" font-size="30" fill="#fdb913" text-anchor="middle" font-weight="bold">path 21 / 29</text>
<animate attributeName="opacity" calcMode="discrete" values="0;1;0" keyTimes="0;0.68966;0.72414" dur="22s" repeatCount="indefinite"/>
</g>
<g opacity="0">
<polyline points="190.0,135.0 1086.0,135.0 1086.0,245.0 1470.0,245.0 1470.0,355.0" fill="none" stroke="#fdb913" stroke-width="7" stroke-linejoin="round" stroke-linecap="round" marker-end="url(#arrow-gold)"/>
<text x="800.0" y="470" font-family="'Roboto Mono', monospace" font-size="40" fill="#000000" text-anchor="middle">14×1¢  +  3×2¢  =  20¢</text>
<text x="800.0" y="526" font-family="'Roboto Mono', monospace" font-size="30" fill="#fdb913" text-anchor="middle" font-weight="bold">path 22 / 29</text>
<animate attributeName="opacity" calcMode="discrete" values="0;1;0" keyTimes="0;0.72414;0.75862" dur="22s" repeatCount="indefinite"/>
</g>
<g opacity="0">
<polyline points="190.0,135.0 958.0,135.0 958.0,245.0 1470.0,245.0 1470.0,355.0" fill="none" stroke="#fdb913" stroke-width="7" stroke-linejoin="round" stroke-linecap="round" marker-end="url(#arrow-gold)"/>
<text x="800.0" y="470" font-family="'Roboto Mono', monospace" font-size="40" fill="#000000" text-anchor="middle">12×1¢  +  4×2¢  =  20¢</text>
<text x="800.0" y="526" font-family="'Roboto Mono', monospace" font-size="30" fill="#fdb913" text-anchor="middle" font-weight="bold">path 23 / 29</text>
<animate attributeName="opacity" calcMode="discrete" values="0;1;0" keyTimes="0;0.75862;0.79310" dur="22s" repeatCount="indefinite"/>
</g>
<g opacity="0">
<polyline points="190.0,135.0 830.0,135.0 830.0,245.0 1470.0,245.0 1470.0,355.0" fill="none" stroke="#fdb913" stroke-width="7" stroke-linejoin="round" stroke-linecap="round" marker-end="url(#arrow-gold)"/>
<text x="800.0" y="470" font-family="'Roboto Mono', monospace" font-size="40" fill="#000000" text-anchor="middle">10×1¢  +  5×2¢  =  20¢</text>
<text x="800.0" y="526" font-family="'Roboto Mono', monospace" font-size="30" fill="#fdb913" text-anchor="middle" font-weight="bold">path 24 / 29</text>
<animate attributeName="opacity" calcMode="discrete" values="0;1;0" keyTimes="0;0.79310;0.82759" dur="22s" repeatCount="indefinite"/>
</g>
<g opacity="0">
<polyline points="190.0,135.0 702.0,135.0 702.0,245.0 1470.0,245.0 1470.0,355.0" fill="none" stroke="#fdb913" stroke-width="7" stroke-linejoin="round" stroke-linecap="round" marker-end="url(#arrow-gold)"/>
<text x="800.0" y="470" font-family="'Roboto Mono', monospace" font-size="40" fill="#000000" text-anchor="middle">8×1¢  +  6×2¢  =  20¢</text>
<text x="800.0" y="526" font-family="'Roboto Mono', monospace" font-size="30" fill="#fdb913" text-anchor="middle" font-weight="bold">path 25 / 29</text>
<animate attributeName="opacity" calcMode="discrete" values="0;1;0" keyTimes="0;0.82759;0.86207" dur="22s" repeatCount="indefinite"/>
</g>
<g opacity="0">
<polyline points="190.0,135.0 574.0,135.0 574.0,245.0 1470.0,245.0 1470.0,355.0" fill="none" stroke="#fdb913" stroke-width="7" stroke-linejoin="round" stroke-linecap="round" marker-end="url(#arrow-gold)"/>
<text x="800.0" y="470" font-family="'Roboto Mono', monospace" font-size="40" fill="#000000" text-anchor="middle">6×1¢  +  7×2¢  =  20¢</text>
<text x="800.0" y="526" font-family="'Roboto Mono', monospace" font-size="30" fill="#fdb913" text-anchor="middle" font-weight="bold">path 26 / 29</text>
<animate attributeName="opacity" calcMode="discrete" values="0;1;0" keyTimes="0;0.86207;0.89655" dur="22s" repeatCount="indefinite"/>
</g>
<g opacity="0">
<polyline points="190.0,135.0 446.0,135.0 446.0,245.0 1470.0,245.0 1470.0,355.0" fill="none" stroke="#fdb913" stroke-width="7" stroke-linejoin="round" stroke-linecap="round" marker-end="url(#arrow-gold)"/>
<text x="800.0" y="470" font-family="'Roboto Mono', monospace" font-size="40" fill="#000000" text-anchor="middle">4×1¢  +  8×2¢  =  20¢</text>
<text x="800.0" y="526" font-family="'Roboto Mono', monospace" font-size="30" fill="#fdb913" text-anchor="middle" font-weight="bold">path 27 / 29</text>
<animate attributeName="opacity" calcMode="discrete" values="0;1;0" keyTimes="0;0.89655;0.93103" dur="22s" repeatCount="indefinite"/>
</g>
<g opacity="0">
<polyline points="190.0,135.0 318.0,135.0 318.0,245.0 1470.0,245.0 1470.0,355.0" fill="none" stroke="#fdb913" stroke-width="7" stroke-linejoin="round" stroke-linecap="round" marker-end="url(#arrow-gold)"/>
<text x="800.0" y="470" font-family="'Roboto Mono', monospace" font-size="40" fill="#000000" text-anchor="middle">2×1¢  +  9×2¢  =  20¢</text>
<text x="800.0" y="526" font-family="'Roboto Mono', monospace" font-size="30" fill="#fdb913" text-anchor="middle" font-weight="bold">path 28 / 29</text>
<animate attributeName="opacity" calcMode="discrete" values="0;1;0" keyTimes="0;0.93103;0.96552" dur="22s" repeatCount="indefinite"/>
</g>
<g opacity="0">
<polyline points="190.0,135.0 190.0,245.0 1470.0,245.0 1470.0,355.0" fill="none" stroke="#fdb913" stroke-width="7" stroke-linejoin="round" stroke-linecap="round" marker-end="url(#arrow-gold)"/>
<text x="800.0" y="470" font-family="'Roboto Mono', monospace" font-size="40" fill="#000000" text-anchor="middle">10×2¢  =  20¢</text>
<text x="800.0" y="526" font-family="'Roboto Mono', monospace" font-size="30" fill="#fdb913" text-anchor="middle" font-weight="bold">path 29 / 29</text>
<animate attributeName="opacity" calcMode="discrete" values="0;1" keyTimes="0;0.96552" dur="22s" repeatCount="indefinite"/>
</g>
</svg>
