<svg xmlns="http://www.w3.org/2000/svg" viewBox="0 0 1400 800" preserveAspectRatio="xMidYMid meet">
<rect x="0" y="0" width="1400" height="800" fill="#ffffff"/>
<defs>
  <marker id="arrow" viewBox="0 0 10 10" refX="9" refY="5" markerWidth="7" markerHeight="7" orient="auto-start-reverse">
    <path d="M0,0 L10,5 L0,10 Z" fill="context-stroke"/>
  </marker>
  <marker id="arrow-gold" viewBox="0 0 10 10" refX="9" refY="5" markerWidth="7" markerHeight="7" orient="auto-start-reverse">
    <path d="M0,0 L10,5 L0,10 Z" fill="#fdb913"/>
  </marker>
</defs>
<rect x="540" y="80" width="760" height="600" fill="#ffffff" stroke="#000000" stroke-width="3" rx="0"/>
<line x1="540" y1="248" x2="732" y2="440" stroke="#000000" stroke-width="1.6"/>
<line x1="540" y1="220" x2="760" y2="440" stroke="#000000" stroke-width="1.6"/>
<line x1="540" y1="192" x2="788" y2="440" stroke="#000000" stroke-width="1.6"/>
<line x1="540" y1="164" x2="816" y2="440" stroke="#000000" stroke-width="1.6"/>
<line x1="540" y1="136" x2="844" y2="440" stroke="#000000" stroke-width="1.6"/>
<line x1="540" y1="108" x2="872" y2="440" stroke="#000000" stroke-width="1.6"/>
<line x1="540" y1="80" x2="900" y2="440" stroke="#000000" stroke-width="1.6"/>
<line x1="568" y1="80" x2="928" y2="440" stroke="#000000" stroke-width="1.6"/>
<line x1="596" y1="80" x2="956" y2="440" stroke="#000000" stroke-width="1.6"/>
<line x1="624" y1="80" x2="980" y2="436" stroke="#000000" stroke-width="1.6"/>
<line x1="652" y1="80" x2="980" y2="408" stroke="#000000" stroke-width="1.6"/>
<line x1="680" y1="80" x2="980" y2="380" stroke="#000000" stroke-width="1.6"/>
<line x1="708" y1="80" x2="980" y2="352" stroke="#000000" stroke-width="1.6"/>
<line x1="736" y1="80" x2="980" y2="324" stroke="#000000" stroke-width="1.6"/>
<line x1="764" y1="80" x2="980" y2="296" stroke="#000000" stroke-width="1.6"/>
<line x1="792" y1="80" x2="980" y2="268" stroke="#000000" stroke-width="1.6"/>
<line x1="820" y1="80" x2="980" y2="240" stroke="#000000" stroke-width="1.6"/>
<line x1="848" y1="80" x2="980" y2="212" stroke="#000000" stroke-width="1.6"/>
<line x1="876" y1="80" x2="980" y2="184" stroke="#000000" stroke-width="1.6"/>
<line x1="904" y1="80" x2="980" y2="156" stroke="#000000" stroke-width="1.6"/>
<line x1="932" y1="80" x2="980" y2="128" stroke="#000000" stroke-width="1.6"/>
<line x1="960" y1="80" x2="980" y2="100" stroke="#000000" stroke-width="1.6"/>
<line x1="1000" y1="460" x2="1010" y2="470" stroke="#9a9a9a" stroke-width="1.2" stroke-dasharray="4,4"/>
<line x1="1036" y1="466" x2="1046" y2="476" stroke="#9a9a9a" stroke-width="1.2" stroke-dasharray="4,4"/>
<line x1="1072" y1="460" x2="1082" y2="470" stroke="#9a9a9a" stroke-width="1.2" stroke-dasharray="4,4"/>
<line x1="1108" y1="466" x2="1118" y2="476" stroke="#9a9a9a" stroke-width="1.2" stroke-dasharray="4,4"/>
<line x1="1144" y1="460" x2="1154" y2="470" stroke="#9a9a9a" stroke-width="1.2" stroke-dasharray="4,4"/>
<line x1="1180" y1="466" x2="1190" y2="476" stroke="#9a9a9a" stroke-width="1.2" stroke-dasharray="4,4"/>
<line x1="1216" y1="460" x2="1226" y2="470" stroke="#9a9a9a" stroke-width="1.2" stroke-dasharray="4,4"/>
<line x1="1252" y1="466" x2="1262" y2="476" stroke="#9a9a9a" stroke-width="1.2" stroke-dasharray="4,4"/>
<line x1="244" y1="140" x2="174" y2="740" stroke="#000000" stroke-width="5"/>
<line x1="316" y1="140" x2="266" y2="740" stroke="#000000" stroke-width="5"/>
<line x1="234.0" y1="225.71428571428572" x2="308.85714285714283" y2="225.71428571428572" stroke="#000000" stroke-width="4"/>
<line x1="224.0" y1="311.42857142857144" x2="301.7142857142857" y2="311.42857142857144" stroke="#000000" stroke-width="4"/>
<line x1="214.0" y1="397.1428571428571" x2="294.57142857142856" y2="397.1428571428571" stroke="#000000" stroke-width="4"/>
<line x1="204.0" y1="482.85714285714283" x2="287.42857142857144" y2="482.85714285714283" stroke="#000000" stroke-width="4"/>
<line x1="194.0" y1="568.5714285714286" x2="280.2857142857143" y2="568.5714285714286" stroke="#000000" stroke-width="4"/>
<line x1="184.0" y1="654.2857142857142" x2="273.14285714285717" y2="654.2857142857142" stroke="#000000" stroke-width="4"/>
<polygon points="236.85714285714283,131.42857142857144 308.85714285714283,131.42857142857144 324.85714285714283,307.42857142857144 220.85714285714283,307.42857142857144" fill="#fce3a4" stroke="#000000" stroke-width="2.5"/>
<line x1="250.85714285714283" y1="307.42857142857144" x2="254.85714285714283" y2="329.42857142857144" stroke="#000000" stroke-width="5"/>
<line x1="294.85714285714283" y1="307.42857142857144" x2="290.85714285714283" y2="329.42857142857144" stroke="#000000" stroke-width="5"/>
<circle cx="272.85714285714283" cy="81.42857142857144" r="44" fill="#fce3a4" stroke="#000000" stroke-width="2.5"/>
<circle cx="282.85714285714283" cy="77.42857142857144" r="3.5" fill="#000000" stroke="#000000" stroke-width="1"/>
<circle cx="294.85714285714283" cy="77.42857142857144" r="3.5" fill="#000000" stroke="#000000" stroke-width="1"/>
<path d="M276.85714285714283,97.42857142857144 q12,8 24,0" stroke="#000000" fill="none" stroke-width="2" stroke-linecap="round" stroke-linejoin="round"/>
<path d="M234.85714285714283,47.428571428571445 Q272.85714285714283,7.428571428571445 310.85714285714283,47.428571428571445 L302.85714285714283,55.428571428571445 L242.85714285714283,55.428571428571445 Z" stroke="#000000" fill="#000000" stroke-width="1.5" stroke-linecap="round" stroke-linejoin="round"/>
<line x1="304.85714285714283" y1="151.42857142857144" x2="402.85714285714283" y2="137.42857142857144" stroke="#000000" stroke-width="5"/>
<line x1="402.85714285714283" y1="137.42857142857144" x2="510" y2="121.42857142857144" stroke="#000000" stroke-width="5"/>
<circle cx="510" cy="121.42857142857144" r="8" fill="#fce3a4" stroke="#000000" stroke-width="2"/>
<line x1="514" y1="119.42857142857144" x2="556" y2="117.42857142857144" stroke="#000000" stroke-width="4"/>
<polygon points="556,111.42857142857144 574,117.42857142857144 556,123.42857142857144" fill="#fdb913" stroke="#000000" stroke-width="1.5"/>
<line x1="558" y1="117.42857142857144" x2="666" y2="227.42857142857144" stroke="#000000" stroke-width="2.4"/>
<line x1="240.85714285714283" y1="151.42857142857144" x2="172.85714285714283" y2="211.42857142857144" stroke="#000000" stroke-width="5"/>
<rect x="129.85714285714283" y="211.42857142857144" width="86" height="110" fill="#ffffff" stroke="#000000" stroke-width="2" rx="0"/>
<line x1="139.85714285714283" y1="229.42857142857144" x2="205.85714285714283" y2="229.42857142857144" stroke="#9a9a9a" stroke-width="1.5"/>
<line x1="139.85714285714283" y1="247.42857142857144" x2="205.85714285714283" y2="247.42857142857144" stroke="#9a9a9a" stroke-width="1.5"/>
<line x1="139.85714285714283" y1="265.42857142857144" x2="205.85714285714283" y2="265.42857142857144" stroke="#9a9a9a" stroke-width="1.5"/>
<line x1="139.85714285714283" y1="283.42857142857144" x2="205.85714285714283" y2="283.42857142857144" stroke="#9a9a9a" stroke-width="1.5"/>
<line x1="139.85714285714283" y1="301.42857142857144" x2="205.85714285714283" y2="301.42857142857144" stroke="#9a9a9a" stroke-width="1.5"/>
<path d="M215.85714285714283,211.42857142857144 q-14,2 -18,18 q14,-2 18,-18 z" stroke="#000000" fill="#ffffff" stroke-width="1.5" stroke-linecap="round" stroke-linejoin="round"/>
<line x1="40" y1="740" x2="1360" y2="740" stroke="#000000" stroke-width="2"/>
<rect x="80" y="670" width="80" height="70" fill="#fdb913" stroke="#000000" stroke-width="2.5" rx="0"/>
<ellipse cx="120.0" cy="670" rx="40.0" ry="8" fill="#fdb913" stroke="#000000" stroke-width="2.5"/>
<ellipse cx="120.0" cy="740" rx="40.0" ry="8" fill="#fdb913" stroke="#000000" stroke-width="2.5"/>
<path d="M86,676 q34.0,-26 68,0" stroke="#000000" fill="none" stroke-width="2" stroke-linecap="round" stroke-linejoin="round"/>
<rect x="336" y="690" width="60" height="50" fill="#ffffff" stroke="#000000" stroke-width="2.5" rx="0"/>
<ellipse cx="366.0" cy="690" rx="30.0" ry="6" fill="#ffffff" stroke="#000000" stroke-width="2.5"/>
<line x1="384" y1="736" x2="412" y2="626" stroke="#000000" stroke-width="3"/>
<polygon points="406,630 418,614 424,624" fill="#fdb913" stroke="#000000" stroke-width="1.2"/>
<line x1="396" y1="736" x2="428" y2="606" stroke="#000000" stroke-width="3"/>
<polygon points="422,610 434,594 440,604" fill="#000000" stroke="#000000" stroke-width="1.2"/>
<line x1="408" y1="736" x2="444" y2="636" stroke="#000000" stroke-width="3"/>
<polygon points="438,640 450,624 456,634" fill="#fdb913" stroke="#000000" stroke-width="1.2"/>
</svg>
