<svg xmlns="http://www.w3.org/2000/svg" viewBox="0 0 1400 800" preserveAspectRatio="xMidYMid meet">
<rect x="0" y="0" width="1400" height="800" fill="#ffffff"/>
<defs>
  <marker id="arrow" viewBox="0 0 10 10" refX="9" refY="5" markerWidth="7" markerHeight="7" orient="auto-start-reverse">
    <path d="M0,0 L10,5 L0,10 Z" fill="context-stroke"/>
  </marker>
  <marker id="arrow-gold" viewBox="0 0 10 10" refX="9" refY="5" markerWidth="7" markerHeight="7" orient="auto-start-reverse">
    <path d="M0,0 L10,5 L0,10 Z" fill="#fdb913"/>
  </marker>
</defs>
<rect x="340.0" y="32.0" width="720" height="720" fill="#ffffff" stroke="#000000" stroke-width="3" rx="0"/>
<g transform="translate(700.0,392.0) scale(268.2352941176471)"><path d="M 1 0.275 A 1 1 0 1 1 -1 0.275 A 1 1 0 0 1 -0.707 -0.432 L -0.85 -1.275 L -0.087 -0.721 A 1 1 0 0 1 0.087 -0.721 L 0.85 -1.275 L 0.707 -0.432 A 1 1 0 0 1 1 0.275 Z" fill="none" stroke="#e53935" stroke-width="3" stroke-linecap="round" stroke-linejoin="round" vector-effect="non-scaling-stroke"/></g>
<g transform="translate(700.0,392.0) scale(229.91596638655463)"><path d="M 1 0.275 A 1 1 0 1 1 -1 0.275 A 1 1 0 0 1 -0.707 -0.432 L -0.85 -1.275 L -0.087 -0.721 A 1 1 0 0 1 0.087 -0.721 L 0.85 -1.275 L 0.707 -0.432 A 1 1 0 0 1 1 0.275 Z" fill="none" stroke="#fb8c00" stroke-width="3" stroke-linecap="round" stroke-linejoin="round" vector-effect="non-scaling-stroke"/></g>
<g transform="translate(700.0,392.0) scale(191.5966386554622)"><path d="M 1 0.275 A 1 1 0 1 1 -1 0.275 A 1 1 0 0 1 -0.707 -0.432 L -0.85 -1.275 L -0.087 -0.721 A 1 1 0 0 1 0.087 -0.721 L 0.85 -1.275 L 0.707 -0.432 A 1 1 0 0 1 1 0.275 Z" fill="none" stroke="#f9a825" stroke-width="3" stroke-linecap="round" stroke-linejoin="round" vector-effect="non-scaling-stroke"/></g>
<g transform="translate(700.0,392.0) scale(153.27731092436974)"><path d="M 1 0.275 A 1 1 0 1 1 -1 0.275 A 1 1 0 0 1 -0.707 -0.432 L -0.85 -1.275 L -0.087 -0.721 A 1 1 0 0 1 0.087 -0.721 L 0.85 -1.275 L 0.707 -0.432 A 1 1 0 0 1 1 0.275 Z" fill="none" stroke="#43a047" stroke-width="3" stroke-linecap="round" stroke-linejoin="round" vector-effect="non-scaling-stroke"/></g>
<g transform="translate(700.0,392.0) scale(114.95798319327731)"><path d="M 1 0.275 A 1 1 0 1 1 -1 0.275 A 1 1 0 0 1 -0.707 -0.432 L -0.85 -1.275 L -0.087 -0.721 A 1 1 0 0 1 0.087 -0.721 L 0.85 -1.275 L 0.707 -0.432 A 1 1 0 0 1 1 0.275 Z" fill="none" stroke="#1e88e5" stroke-width="3" stroke-linecap="round" stroke-linejoin="round" vector-effect="non-scaling-stroke"/></g>
<g transform="translate(700.0,392.0) scale(76.63865546218487)"><path d="M 1 0.275 A 1 1 0 1 1 -1 0.275 A 1 1 0 0 1 -0.707 -0.432 L -0.85 -1.275 L -0.087 -0.721 A 1 1 0 0 1 0.087 -0.721 L 0.85 -1.275 L 0.707 -0.432 A 1 1 0 0 1 1 0.275 Z" fill="none" stroke="#3949ab" stroke-width="3" stroke-linecap="round" stroke-linejoin="round" vector-effect="non-scaling-stroke"/></g>
<g transform="translate(700.0,392.0) scale(38.319327731092436)"><path d="M 1 0.275 A 1 1 0 1 1 -1 0.275 A 1 1 0 0 1 -0.707 -0.432 L -0.85 -1.275 L -0.087 -0.721 A 1 1 0 0 1 0.087 -0.721 L 0.85 -1.275 L 0.707 -0.432 A 1 1 0 0 1 1 0.275 Z" fill="none" stroke="#6a1b9a" stroke-width="3" stroke-linecap="round" stroke-linejoin="round" vector-effect="non-scaling-stroke"/></g>
<text x="700.0" y="790.0" font-family="'Roboto Mono', 'Menlo', 'Consolas', monospace" font-size="22" fill="#fdb913" text-anchor="middle" font-weight="normal" font-style="normal">Wall Drawing  ·  nested cat outlines  ·  red outside → violet inside</text>
</svg>
