<svg xmlns="http://www.w3.org/2000/svg" viewBox="0 0 1400 800" preserveAspectRatio="xMidYMid meet">
<rect x="0" y="0" width="1400" height="800" fill="#ffffff"/>
<defs>
  <marker id="arrow" viewBox="0 0 10 10" refX="9" refY="5" markerWidth="7" markerHeight="7" orient="auto-start-reverse">
    <path d="M0,0 L10,5 L0,10 Z" fill="context-stroke"/>
  </marker>
  <marker id="arrow-gold" viewBox="0 0 10 10" refX="9" refY="5" markerWidth="7" markerHeight="7" orient="auto-start-reverse">
    <path d="M0,0 L10,5 L0,10 Z" fill="#fdb913"/>
  </marker>
</defs>
<rect x="125.0" y="325.0" width="150" height="110" fill="#ffffff" stroke="#000000" stroke-width="3" rx="10"/>
<rect x="275.0" y="352.0" width="48" height="56" fill="#ffffff" stroke="#000000" stroke-width="3" rx="4"/>
<circle cx="337.0" cy="380.0" r="32" fill="#ffffff" stroke="#000000" stroke-width="3"/>
<circle cx="337.0" cy="380.0" r="20" fill="#9a9a9a" stroke="#000000" stroke-width="2"/>
<circle cx="337.0" cy="380.0" r="8" fill="#000000" stroke="#000000" stroke-width="1"/>
<rect x="145.0" y="309.0" width="40" height="18" fill="#ffffff" stroke="#000000" stroke-width="2" rx="3"/>
<line x1="200" y1="439.0" x2="140" y2="740" stroke="#000000" stroke-width="4"/>
<line x1="200" y1="439.0" x2="200" y2="740" stroke="#000000" stroke-width="4"/>
<line x1="200" y1="439.0" x2="260" y2="740" stroke="#000000" stroke-width="4"/>
<line x1="40" y1="740" x2="1360" y2="740" stroke="#000000" stroke-width="2"/>
<line x1="369.0" y1="380.0" x2="829.0" y2="180.0" stroke="#fdb913" stroke-width="2.4" stroke-dasharray="6,6"/>
<line x1="369.0" y1="380.0" x2="829.0" y2="580.0" stroke="#fdb913" stroke-width="2.4" stroke-dasharray="6,6"/>
<line x1="429.0" y1="344.0" x2="829.0" y2="180.0" stroke="#000000" stroke-width="2.4"/>
<line x1="429.0" y1="416.0" x2="829.0" y2="580.0" stroke="#000000" stroke-width="2.4"/>
<line x1="429.0" y1="344.0" x2="429.0" y2="416.0" stroke="#000000" stroke-width="2.4"/>
<line x1="829.0" y1="180.0" x2="829.0" y2="580.0" stroke="#000000" stroke-width="2.4"/>
<path d="M442.37,348.10 A80,80 0 0 1 442.37,411.90" stroke="#fdb913" fill="none" stroke-width="2.4" stroke-linecap="round" stroke-linejoin="round"/>
<text x="457.0" y="384.0" font-family="Roboto, 'Helvetica Neue', Arial, sans-serif" font-size="22" fill="#fdb913" text-anchor="start" font-weight="normal" font-style="normal">angle of view</text>
<polygon points="510.0,432.0 800.0,528.0 822.0,486.0 532.0,390.0" fill="#f7f1e3" stroke="#555555" stroke-width="1.6"/>
<line x1="568.0" y1="451.2" x2="590.0" y2="409.2" stroke="#9a9a9a" stroke-width="1"/>
<line x1="626.0" y1="470.4" x2="648.0" y2="428.4" stroke="#9a9a9a" stroke-width="1"/>
<line x1="684.0" y1="489.6" x2="706.0" y2="447.6" stroke="#9a9a9a" stroke-width="1"/>
<line x1="742.0" y1="508.8" x2="764.0" y2="466.8" stroke="#9a9a9a" stroke-width="1"/>
<line x1="514.4" y1="423.6" x2="804.4" y2="519.6" stroke="#9a9a9a" stroke-width="1"/>
<line x1="518.8" y1="415.2" x2="808.8" y2="511.2" stroke="#9a9a9a" stroke-width="1"/>
<line x1="523.2" y1="406.8" x2="813.2" y2="502.8" stroke="#9a9a9a" stroke-width="1"/>
<line x1="527.6" y1="398.4" x2="817.6" y2="494.4" stroke="#9a9a9a" stroke-width="1"/>
<ellipse cx="679.4" cy="467.90000000000003" rx="78" ry="7" fill="#9a9a9a" stroke="none" stroke-width="0"/>
<circle cx="619.4" cy="439.90000000000003" r="26" fill="#ffffff" stroke="#000000" stroke-width="3"/>
<line x1="619.4" y1="439.90000000000003" x2="643.9196320100807" y2="444.77725805040325" stroke="#000000" stroke-width="1"/>
<line x1="619.4" y1="439.90000000000003" x2="633.28925582549" y2="460.68674030756364" stroke="#000000" stroke-width="1"/>
<line x1="619.4" y1="439.90000000000003" x2="614.5227419495968" y2="464.4196320100808" stroke="#000000" stroke-width="1"/>
<line x1="619.4" y1="439.90000000000003" x2="598.6132596924364" y2="453.7892558254901" stroke="#000000" stroke-width="1"/>
<line x1="619.4" y1="439.90000000000003" x2="594.8803679899193" y2="435.0227419495968" stroke="#000000" stroke-width="1"/>
<line x1="619.4" y1="439.90000000000003" x2="605.5107441745099" y2="419.11325969243643" stroke="#000000" stroke-width="1"/>
<line x1="619.4" y1="439.90000000000003" x2="624.2772580504031" y2="415.38036798991925" stroke="#000000" stroke-width="1"/>
<line x1="619.4" y1="439.90000000000003" x2="640.1867403075636" y2="426.01074417450997" stroke="#000000" stroke-width="1"/>
<circle cx="619.4" cy="439.90000000000003" r="3" fill="#000000" stroke="#000000" stroke-width="1"/>
<circle cx="739.4" cy="439.90000000000003" r="26" fill="#ffffff" stroke="#000000" stroke-width="3"/>
<line x1="739.4" y1="439.90000000000003" x2="763.9196320100807" y2="444.77725805040325" stroke="#000000" stroke-width="1"/>
<line x1="739.4" y1="439.90000000000003" x2="753.28925582549" y2="460.68674030756364" stroke="#000000" stroke-width="1"/>
<line x1="739.4" y1="439.90000000000003" x2="734.5227419495968" y2="464.4196320100808" stroke="#000000" stroke-width="1"/>
<line x1="739.4" y1="439.90000000000003" x2="718.6132596924364" y2="453.7892558254901" stroke="#000000" stroke-width="1"/>
<line x1="739.4" y1="439.90000000000003" x2="714.8803679899193" y2="435.0227419495968" stroke="#000000" stroke-width="1"/>
<line x1="739.4" y1="439.90000000000003" x2="725.5107441745099" y2="419.11325969243643" stroke="#000000" stroke-width="1"/>
<line x1="739.4" y1="439.90000000000003" x2="744.2772580504031" y2="415.38036798991925" stroke="#000000" stroke-width="1"/>
<line x1="739.4" y1="439.90000000000003" x2="760.1867403075636" y2="426.01074417450997" stroke="#000000" stroke-width="1"/>
<circle cx="739.4" cy="439.90000000000003" r="3" fill="#000000" stroke="#000000" stroke-width="1"/>
<line x1="649.4" y1="387.90000000000003" x2="714.4" y2="383.90000000000003" stroke="#000000" stroke-width="3"/>
<line x1="649.4" y1="387.90000000000003" x2="679.4" y2="439.90000000000003" stroke="#000000" stroke-width="3"/>
<line x1="714.4" y1="383.90000000000003" x2="679.4" y2="439.90000000000003" stroke="#000000" stroke-width="3"/>
<line x1="679.4" y1="439.90000000000003" x2="619.4" y2="439.90000000000003" stroke="#000000" stroke-width="3"/>
<line x1="649.4" y1="387.90000000000003" x2="619.4" y2="439.90000000000003" stroke="#000000" stroke-width="3"/>
<line x1="714.4" y1="383.90000000000003" x2="739.4" y2="439.90000000000003" stroke="#000000" stroke-width="3"/>
<ellipse cx="647.4" cy="384.90000000000003" rx="14" ry="4" fill="#000000" stroke="#000000" stroke-width="1"/>
<line x1="714.4" y1="383.90000000000003" x2="716.4" y2="369.90000000000003" stroke="#000000" stroke-width="3"/>
<line x1="706.4" y1="369.90000000000003" x2="730.4" y2="369.90000000000003" stroke="#000000" stroke-width="3"/>
<ellipse cx="649.4" cy="355.90000000000003" rx="22" ry="36" fill="#000000" stroke="#000000" stroke-width="1.5"/>
<ellipse cx="655.4" cy="357.90000000000003" rx="12" ry="28" fill="#ffffff" stroke="none" stroke-width="0"/>
<ellipse cx="653.4" cy="311.90000000000003" rx="16" ry="18" fill="#000000" stroke="#000000" stroke-width="1.5"/>
<polygon points="667.4,308.90000000000003 680.4,311.90000000000003 667.4,314.90000000000003" fill="#fb8c00" stroke="#000000" stroke-width="1"/>
<circle cx="658.4" cy="307.90000000000003" r="3" fill="#ffffff" stroke="#000000" stroke-width="0.8"/>
<circle cx="659.1999999999999" cy="307.6" r="1.4" fill="#000000" stroke="#000000" stroke-width="0"/>
<ellipse cx="667.4" cy="345.90000000000003" rx="14" ry="4" fill="#000000" stroke="#000000" stroke-width="1"/>
<g transform="translate(740,248) rotate(-12)"><ellipse cx="-33.31999999999999" cy="0" rx="9.799999999999999" ry="12.6" fill="#000000" stroke="#000000" stroke-width="1.5"/><ellipse cx="-16.659999999999997" cy="0" rx="9.799999999999999" ry="12.6" fill="#fdb913" stroke="#000000" stroke-width="1.5"/><ellipse cx="0.0" cy="0" rx="9.799999999999999" ry="12.6" fill="#000000" stroke="#000000" stroke-width="1.5"/><ellipse cx="16.659999999999997" cy="0" rx="9.799999999999999" ry="12.6" fill="#fdb913" stroke="#000000" stroke-width="1.5"/><ellipse cx="33.31999999999999" cy="0" rx="9.799999999999999" ry="12.6" fill="#000000" stroke="#000000" stroke-width="1.5"/><ellipse cx="-7.0" cy="-19.599999999999998" rx="26.599999999999998" ry="12.6" fill="#ffffff" stroke="#000000" stroke-width="1.5"/><line x1="-26.599999999999998" y1="-19.599999999999998" x2="12.6" y2="-19.599999999999998" stroke="#000000" stroke-width="1"/><ellipse cx="-1.4" cy="-22.4" rx="23.799999999999997" ry="11.2" fill="#ffffff" stroke="#000000" stroke-width="1.5"/><line x1="-21.0" y1="-22.4" x2="18.2" y2="-22.4" stroke="#000000" stroke-width="1"/><line x1="-12.6" y1="12.6" x2="-8.4" y2="21.0" stroke="#000000" stroke-width="1.5"/><line x1="2.8" y1="12.6" x2="6.999999999999999" y2="21.0" stroke="#000000" stroke-width="1.5"/><path d="M33.31999999999999,-2.8 Q45.919999999999995,-12.599999999999998 51.519999999999996,-18.2" stroke="#000000" fill="none" stroke-width="1.2" stroke-linecap="round" stroke-linejoin="round"/><circle cx="51.519999999999996" cy="-18.2" r="1.54" fill="#000000" stroke="#000000" stroke-width="0.5"/><path d="M33.31999999999999,2.8 Q45.919999999999995,-6.999999999999999 51.519999999999996,-12.599999999999998" stroke="#000000" fill="none" stroke-width="1.2" stroke-linecap="round" stroke-linejoin="round"/><circle cx="51.519999999999996" cy="-12.599999999999998" r="1.54" fill="#000000" stroke="#000000" stroke-width="0.5"/></g>
<text x="200" y="770" font-family="Roboto, 'Helvetica Neue', Arial, sans-serif" font-size="24" fill="#555555" text-anchor="middle" font-weight="normal" font-style="normal">camera</text>
<text x="666.0" y="770" font-family="Roboto, 'Helvetica Neue', Arial, sans-serif" font-size="24" fill="#555555" text-anchor="middle" font-weight="normal" font-style="normal">scene</text>
</svg>
